<?xml version="1.0" encoding="UTF-8" standalone="no"?>
<!-- Created with Inkscape (http://www.inkscape.org/) -->

<svg
   width="600"
   height="600"
   viewBox="0 0 158.75 158.75"
   version="1.1"
   id="svg1"
   xml:space="preserve"
   inkscape:version="1.4 (e7c3feb1, 2024-10-09)"
   sodipodi:docname="noodleops-logo.svg"
   inkscape:export-filename="logo600-roundsquare.png"
   inkscape:export-xdpi="96"
   inkscape:export-ydpi="96"
   xmlns:inkscape="http://www.inkscape.org/namespaces/inkscape"
   xmlns:sodipodi="http://sodipodi.sourceforge.net/DTD/sodipodi-0.dtd"
   xmlns="http://www.w3.org/2000/svg"
   xmlns:svg="http://www.w3.org/2000/svg"><sodipodi:namedview
     id="namedview1"
     pagecolor="#ffffff"
     bordercolor="#000000"
     borderopacity="0.25"
     inkscape:showpageshadow="2"
     inkscape:pageopacity="0.0"
     inkscape:pagecheckerboard="false"
     inkscape:deskcolor="#d1d1d1"
     inkscape:document-units="mm"
     inkscape:zoom="1.1189252"
     inkscape:cx="339.61163"
     inkscape:cy="295.8196"
     inkscape:window-width="1856"
     inkscape:window-height="1089"
     inkscape:window-x="1344"
     inkscape:window-y="267"
     inkscape:window-maximized="0"
     inkscape:current-layer="layer2"
     labelstyle="default"
     inkscape:clip-to-page="false"
     inkscape:export-bgcolor="#ffffffff" /><defs
     id="defs1"><filter
       inkscape:label="Fast Crop"
       inkscape:auto-region="false"
       inkscape:menu="Fill and Transparency"
       inkscape:menu-tooltip="Does not filter but adds a filter region"
       style="color-interpolation-filters:sRGB"
       id="filter2"><feColorMatrix
         type="saturate"
         values="1"
         id="feColorMatrix2" /></filter><symbol
       id="MapSymbolsNPS.svg:blank"><title
         id="title312">Blank</title><rect
         x="1"
         y="1"
         width="70"
         height="70"
         rx="6"
         style="fill:none;stroke:#000000;stroke-width:2"
         id="rect312" /></symbol></defs><g
     inkscape:groupmode="layer"
     id="layer2"
     inkscape:label="Layer 2"><rect
       style="display:inline;opacity:1;fill:#ffffff;fill-opacity:1;stroke:#000000;stroke-width:0;stroke-linecap:round;stroke-linejoin:round;stroke-miterlimit:5;stroke-dasharray:none;stroke-dashoffset:0;stroke-opacity:1;paint-order:stroke fill markers"
       id="rect113"
       width="155.35556"
       height="154.64618"
       x="1.6972198"
       y="2.0519104"
       rx="10"
       ry="10" /></g><g
     inkscape:label="Layer 1"
     inkscape:groupmode="layer"
     id="layer1"
     transform="translate(-1.1436092,-0.94241819)"><path
       style="fill:#000000;filter:url(#filter2)"
       d="m 135.59824,188.57143 c -1.8254,-1.0764 -3.5301,-3.15676 -4.5727,-5.58013 -1.3596,-3.16066 0.355,-7.38035 3.943,-9.70353 l 1.5519,-1.00486 -3.2038,-1.82492 c -4.2646,-2.42911 -9.1655,-5.72606 -12.7289,-8.56297 -3.6659,-2.91855 -10.4736,-9.70728 -13.3053,-13.26815 -7.739699,-9.73291 -13.528099,-21.48026 -16.586299,-33.66138 -2.7296,-10.87281 -2.6865,-14.88554 0.1896,-17.628407 0.6199,-0.59114 1.4923,-1.32408 1.938701,-1.62877 0.5713,-0.38985 1.029399,-1.10887 1.546599,-2.42704 2.2205,-5.65976 7.925299,-11.0093 13.690999,-12.83857 3.2494,-1.03094 5.2747,-1.28147 9.0688,-1.12186 4.0929,0.17217 7.5218,0.96621 10.4863,2.42833 1.0815,0.53346 2.0711,1.07315 2.199,1.19932 0.1322,0.13034 0.955,-0.32432 1.9055,-1.05285 0.9202,-0.70524 1.9168,-1.35965 2.2149,-1.45424 0.298,-0.0946 0.5419,-0.34256 0.5419,-0.55104 0,-0.20847 0.1203,-0.37904 0.2674,-0.37904 0.1471,0 0.7722,-0.21869 1.3891,-0.48599 1.7945,-0.77755 3.6137,-1.38657 5.8841,-1.96984 1.1641,-0.29908 2.1563,-0.64278 2.2048,-0.76377 0.049,-0.12099 0.3682,-0.21998 0.7104,-0.21998 0.3422,0 0.9574,-0.1317 1.367,-0.29266 0.4442,-0.17453 2.4689,-0.28418 5.0162,-0.27167 4.4504,0.0219 7.472,0.47092 11.1214,1.65285 1.6167,0.52358 1.6455,0.52381 2.6459,0.0208 0.5562,-0.27969 1.4876,-0.65666 2.0697,-0.8377 0.5821,-0.18103 1.6536,-0.60685 2.3812,-0.94626 1.4791,-0.68992 4.948,-1.52263 8.321,-1.9974 4.73,-0.66578 12.2501,0.11542 17.2113,1.78793 2.3182,0.7815 7.2291,3.1308 9.1282,4.36678 1.249,0.81293 1.4411,0.85702 3.4395,0.78963 1.1642,-0.0393 2.9422,0.0491 3.9512,0.19634 l 1.8344,0.2677 1.2337,-0.90563 c 3.0818,-2.26224 6.0892,-3.28504 12.3269,-4.19233 4.2923,-0.62432 9.3391,0.23394 13.7991,2.34666 2.9065,1.37683 4.5517,2.51796 6.9939,4.85118 l 1.7746,1.69538 1.20203,-1.05805 c 3.4408,-3.02869 9.6054,-4.72622 14.69572,-4.0467 8.3923,1.12032 15.7747,6.87745 17.7102,13.8113 0.3742,1.34066 0.5815,1.61626 2.0031,2.66276 3.5881,2.64136 4.9214,6.403767 4.0885,11.536727 -0.3447,2.12399 -2.7609,10.48678 -4.3729,15.135 -4.4404,12.80396 -10.5919,22.61286 -20.8771,33.28994 -5.14442,5.34034 -14.14105,12.07817 -20.71075,15.51084 -0.7639,0.39918 -1.389,0.77042 -1.389,0.82497 0,0.0546 0.4465,0.33614 0.9922,0.62575 2.0385,1.08186 3.8423,3.16193 4.418,5.09466 0.3644,1.22354 0.1787,3.78715 -0.419,5.78194 -0.3588,1.19758 -3.9873,5.10896 -5.1494,5.55077 -0.4216,0.1603 -19.9132,0.24941 -52.5773,0.24037 l -51.9072,-0.0144 z m 103.6965,-2.60563 c 2.5596,-1.18314 4.3245,-4.02216 3.802,-6.11593 -0.398,-1.595 -2.467,-3.49795 -3.8055,-3.50007 -0.4967,-7.9e-4 -0.5814,0.0932 -0.4161,0.46203 0.1141,0.25467 0.2581,1.03909 0.32,1.74317 0.099,1.12434 0.021,1.37786 -0.6422,2.0831 -1.6718,1.77861 2.1354,1.64498 -48.1152,1.68884 -25.0296,0.0219 -46.3264,-0.0548 -47.3264,-0.17034 -1.5392,-0.17784 -1.9526,-0.3404 -2.6947,-1.05966 -0.9851,-0.95483 -1.3306,-2.2806 -0.9404,-3.60863 0.2056,-0.69983 0.1727,-0.86155 -0.192,-0.94194 -1.3898,-0.30641 -3.3164,1.11197 -3.763,2.77032 -0.5043,1.87301 0.1075,3.68448 1.7796,5.26907 1.2997,1.2316 1.9882,1.5759 3.6411,1.82064 0.7379,0.10927 22.892,0.18296 49.2312,0.16377 l 47.8896,-0.0349 z m -53.8575,-14.58198 c 0.4351,-0.29055 0.8995,-1.27596 0.8995,-1.90881 0,-0.30722 -0.2923,-0.85083 -0.6494,-1.20802 -1.8218,-1.82175 -4.5086,0.82873 -2.7441,2.70696 0.5715,0.60832 1.8758,0.82267 2.494,0.40987 z m 8.8774,-2.29418 c 0.3644,-0.79961 0.1797,-1.31564 -0.6699,-1.87234 -1.2558,-0.82283 -2.4813,0.57734 -1.6353,1.86843 0.5882,0.89774 1.897,0.89996 2.3052,0.004 z m 26.3829,-1.0817 c 3.6771,-2.00131 5.5243,-6.22044 4.407,-10.06594 -1.1124,-3.82838 -4.3217,-6.2694 -8.2588,-6.28169 -1.6138,-0.005 -2.1641,0.1229 -3.6274,0.84329 -1.9788,0.97416 -3.9701,3.03527 -4.4411,4.59678 -0.2393,0.79322 -0.4286,0.99219 -0.944,0.99219 -0.9894,0 -7.8897,-1.72214 -10.1194,-2.52557 -6.381,-2.2992 -13.219,-7.24752 -18.0448,-13.05828 -3.0407,-3.66117 -7.2706,-10.01851 -6.9488,-10.44376 1.7995,-2.37858 2.4998,-3.99131 2.5025,-5.76276 l 0.001,-0.96642 1.9182,-0.56142 c 1.0551,-0.30878 3.7042,-1.1103 5.887,-1.78115 5.3083,-1.63141 5.0567,-1.59386 5.2597,-0.78486 0.301,1.19924 2.7805,3.4648 4.3696,3.99262 1.7681,0.58728 3.8912,0.44269 5.6519,-0.38494 l 1.251,-0.58806 2.0331,1.89869 c 1.1182,1.04428 3.5662,3.22983 5.44,4.85678 3.7005,3.21302 3.5448,2.91016 2.7065,5.26784 -0.3408,0.95859 -0.3912,1.54562 -0.2152,2.50873 l 0.2297,1.25731 -2.6475,1.61089 c -1.4562,0.88598 -4.4726,2.73362 -6.7032,4.10585 -2.2307,1.37223 -4.3015,2.6335 -4.6019,2.8028 -0.504,0.28408 -0.4208,0.37112 1.0782,1.1278 l 1.6243,0.81997 2.0515,-1.23439 c 1.1283,-0.67892 3.8732,-2.47601 6.0997,-3.99353 l 4.0481,-2.75913 1.1268,1.03857 c 2.9949,2.76065 7.4852,2.44961 10.2675,-0.71124 l 1.0349,-1.17578 1.7758,0.56916 c 3.3528,1.07462 6.4482,1.44682 10.9039,1.31115 3.4269,-0.10434 4.4925,-0.24065 6.4823,-0.82921 2.9767,-0.88047 6.8455,-2.71826 9.11333,-4.32906 3.9122,-2.77872 7.7694,-7.41511 9.7984,-11.77779 2.60162,-5.59363 2.74682,-8.23667 0.5246,-9.54932 -1.5041,-0.88851 -2.4275,-0.28717 -3.3202,2.16223 -2.0994,5.7601 -3.5125,8.28347 -6.3895,11.41008 -3.92903,4.26991 -8.84693,6.86133 -15.15063,7.98341 -2.1871,0.38931 -9.7384,0.49077 -11.6887,0.15704 -1.2266,-0.20988 -1.2403,-0.22365 -1.5205,-1.53009 -0.1555,-0.72507 -0.5185,-1.78051 -0.8067,-2.34542 l -0.524,-1.02711 2.7151,-2.86675 c 1.4933,-1.57672 3.3141,-3.50646 4.0463,-4.28831 l 1.3311,-1.42156 1.7569,0.59345 c 2.1326,0.72035 3.4152,0.5959 5.718,-0.55481 3.5155,-1.75673 4.6867,-5.89372 2.6687,-9.42708 -1.322,-2.31466 -3.4777,-3.51349 -6.3091,-3.50857 -4.9641,0.009 -8.137,5.03064 -6.0536,9.58135 l 0.6557,1.43234 -4.3372,4.39998 -4.3371,4.39997 -0.984,-0.58089 c -1.4309,-0.84473 -3.9685,-0.80973 -5.7465,0.0793 l -1.3229,0.66146 -4.6302,-4.2102 c -2.5466,-2.31561 -5.0344,-4.59696 -5.5283,-5.06966 l -0.898,-0.85945 0.435,-1.08726 c 1.806,-4.51369 -1.8175,-9.60731 -6.8534,-9.63397 -2.9856,-0.0158 -5.7006,2.01496 -6.6282,4.95778 l -0.4697,1.49 -1.7365,0.5065 c -0.9551,0.27858 -3.6828,1.05905 -6.0616,1.73438 -2.3787,0.67533 -4.4694,1.2833 -4.6459,1.35104 -0.1766,0.0677 -0.7095,-0.47643 -1.1844,-1.20927 -1.5152,-2.33843 -3.8995,-3.59105 -6.778,-3.56092 -4.4932,0.047 -7.8492,3.40614 -7.8928,7.90022 -0.039,4.0025 3.144,7.60645 7.1189,8.06085 l 1.3919,0.15913 0.9778,1.85208 c 1.0418,1.97338 3.5932,5.77422 5.7722,8.59896 6.1982,8.03469 14.6848,14.25789 22.5299,16.52125 2.5095,0.72399 8.1365,1.3538 10.117,1.13236 1.0893,-0.12179 1.1283,-0.0995 1.3725,0.78492 0.6388,2.31366 2.8502,4.70066 5.2535,5.67062 1.9231,0.77613 5.0372,0.57966 6.9023,-0.43545 z m -5.7899,-4.3242 c -1.2555,-0.67303 -2.2402,-2.57909 -1.9984,-3.86807 0.627,-3.34182 5.2886,-4.25227 7.0427,-1.37548 1.9815,3.24966 -1.6746,7.05008 -5.0443,5.24355 z m 0.2879,-23.22164 c -0.7202,-0.9155 -0.6924,-1.56421 0.101,-2.3576 1.6991,-1.69911 4.2667,0.45615 2.7859,2.33859 -0.7734,0.98322 -2.1215,0.9921 -2.8869,0.019 z m -49.3993,-11.98118 c -1.1759,-0.71702 -1.6845,-1.56243 -1.6845,-2.79981 0,-1.31116 0.4775,-2.03858 1.7275,-2.63175 1.9961,-0.9472 4.251,0.26874 4.5436,2.45006 0.1756,1.30909 -0.6034,2.56513 -1.9363,3.12204 -1.1685,0.48822 -1.6621,0.46204 -2.6503,-0.14054 z m 67.545,-7.12012 c -0.6421,-0.70952 -0.5633,-2.04411 0.1502,-2.54385 1.2693,-0.88903 2.8515,-0.17773 2.8515,1.28191 0,0.50685 -0.2019,1.05282 -0.4838,1.30791 -0.6422,0.5812 -1.9723,0.55692 -2.5179,-0.046 z m -39.5501,-0.65768 c -0.6793,-0.72311 -0.76,-2.07991 -0.1536,-2.58315 0.2318,-0.19245 0.816,-0.3499 1.2981,-0.3499 1.2052,0 1.7198,0.50413 1.7198,1.68472 0,1.75305 -1.6958,2.49213 -2.8643,1.24833 z m -38.2038,47.0766 c 1.3979,-0.72288 2.6994,-2.02367 3.3916,-3.38967 0.6145,-1.21264 0.7056,-1.28229 1.5044,-1.15076 1.7233,0.28375 5.1524,0.65242 7.5971,0.81678 4.4954,0.30223 10.5019,-0.71424 15.2997,-2.58913 1.7791,-0.69522 2.117,-0.91173 1.7566,-1.12541 -0.2454,-0.14552 -1.5062,-0.96241 -2.8016,-1.8153 l -2.3554,-1.55072 -1.7962,0.6658 c -3.2892,1.21921 -7.6279,2.02499 -12.3931,2.30167 -6.5666,0.38129 -6.1002,0.43273 -6.5829,-0.72593 -0.5184,-1.24444 -2.0123,-2.80684 -3.5625,-3.72589 -0.9912,-0.58766 -1.5008,-0.70447 -3.0427,-0.69749 -3.225,0.0146 -5.7223,1.82307 -6.673,4.83226 -0.3764,1.19148 -0.3955,1.62684 -0.1275,2.91041 0.5045,2.41648 2.4157,4.64577 4.7176,5.50275 1.2765,0.47524 3.9077,0.34058 5.0679,-0.25937 z m -3.9886,-4.9289 c -0.872,-0.68586 -0.956,-1.87263 -0.187,-2.64158 1.1199,-1.11988 3.0139,-0.27783 2.9685,1.31972 -0.045,1.58186 -1.5449,2.29462 -2.7815,1.32186 z m 86.5242,-3.50749 c 1.2403,-1.24035 1.2653,-3.55255 0.052,-4.84373 -1.8391,-1.95756 -5.1033,-1.11514 -5.8071,1.49869 -0.2342,0.86991 -0.1955,1.23456 0.2347,2.20701 0.9777,2.21028 3.8546,2.8034 5.52,1.13803 z m -3.277,-1.93894 c -0.6089,-0.92924 -0.2056,-1.56078 0.9967,-1.56078 0.7385,0 0.9127,0.10919 0.9846,0.61714 0.094,0.66258 -0.6074,1.63182 -1.1806,1.63182 -0.1924,0 -0.5527,-0.30968 -0.8007,-0.68818 z m 13.4454,-2.12144 c 1.0198,-0.51327 1.7001,-2.40227 1.3008,-3.61209 -0.3101,-0.93945 -1.0499,-1.75978 -2.0531,-2.27647 -1.9151,-0.98631 -4.5815,0.70183 -4.5815,2.90058 0,2.87111 2.6341,4.34673 5.3338,2.98798 z m -3.0058,-2.36097 c -0.2586,-0.56767 -0.2268,-0.75224 0.2041,-1.1824 0.4395,-0.43877 0.6024,-0.46391 1.1697,-0.18058 1.1982,0.59835 0.8928,2.03566 -0.4326,2.03566 -0.4231,0 -0.7369,-0.22427 -0.9412,-0.67268 z m -101.9793,0.91806 c 0.5368,-0.42226 0.6972,-0.78194 0.6972,-1.56398 0,-1.44399 -0.8706,-2.066 -4.7911,-3.42326 -4.2453,-1.46967 -7.0846,-2.79919 -9.9568,-4.66227 -4.9054,-3.182 -8.8353,-6.8388 -12.5826,-11.70832 -1.8107,-2.353 -2.9964,-4.27901 -5.0827,-8.25631 -1.2758,-2.43207 -1.7724,-3.13122 -2.4743,-3.48379 -1.136,-0.57059 -2.2678,-0.21353 -2.9755,0.93867 -0.6496,1.05751 -0.5129,1.76061 0.9318,4.79408 6.4766,13.59891 18.2301,23.94441 30.978,27.2669 3.0292,0.78949 4.346,0.81411 5.256,0.0983 z m 21.3092,-2.63266 c 2.4528,-0.31838 4.9461,-0.93795 6.7847,-1.68595 l 1.4189,-0.57727 -1.4611,-1.84194 c -2.1443,-2.70343 -1.8788,-2.54613 -3.5444,-2.10005 -8.3022,2.22358 -17.386,-0.36137 -23.2324,-6.61126 -6.9659,-7.4466 -10.3486,-16.71021 -9.323,-25.53173 0.5992,-5.15436 1.836,-8.95869 4.1521,-12.77139 1.1212,-1.845657 1.2051,-1.690807 -1.8891,-3.487897 -3.8293,-2.22402 -8.2593,-3.23317 -13.0897,-2.9818 -5.6642,0.29476 -10.2693,1.4435 -14.8239,3.69781 l -2.2489,1.11313 2.1166,0.0692 c 15.5022,0.50668 17.0428,0.58882 18.7854,1.00166 1.8151,0.42998 5.0324,1.816807 5.3293,2.297187 0.083,0.13366 -0.087,0.50209 -0.3769,0.81874 -1.2429,1.35778 -2.7103,5.49355 -3.2439,9.143 -0.5148,3.52079 -0.2039,9.62066 0.6542,12.83706 4.6009,17.2446 19.044,28.55179 33.9921,26.61152 z m 95.32713,-8.07141 c 0.2559,-0.56165 0.2185,-0.78472 -0.2327,-1.38906 -0.7013,-0.93939 -1.6543,-0.94941 -2.1743,-0.0229 -0.351,0.6254 -0.3447,0.7683 0.062,1.38907 0.6245,0.95318 1.9153,0.96575 2.3449,0.0228 z m -64.99483,-0.5095 c 0.9924,-0.99246 0.8012,-2.86243 -0.386,-3.77392 -0.2309,-0.17727 -0.8717,-0.3261 -1.424,-0.33073 -1.4054,-0.0118 -2.3031,0.91308 -2.3031,2.37283 0,0.79643 0.1716,1.25397 0.6494,1.73182 0.4779,0.47786 0.9354,0.64944 1.7319,0.64944 0.7964,0 1.2539,-0.17158 1.7318,-0.64944 z m 74.50555,-0.68081 c 1.3686,-1.43867 4.4536,-6.70878 6.3226,-10.80075 1.7795,-3.89614 3.9588,-10.14716 3.9588,-11.35542 0,-1.14554 -0.7311,-1.52825 -1.9481,-1.01977 -0.7871,0.32888 -0.9772,0.60728 -1.4945,2.18889 -1.2012,3.67227 -3.0093,7.98409 -4.6986,11.20479 -1.5532,2.96132 -2.3887,4.33292 -4.8902,8.02836 -0.7676,1.13406 -0.7641,1.87889 0.012,2.48883 0.786,0.61785 1.6795,0.37804 2.7382,-0.73493 z m -102.99415,-1.19351 c 0.1728,-0.17283 -0.4517,-1.28198 -1.2638,-2.24458 -0.5487,-0.65048 -1.0512,-0.88956 -2.5004,-1.18985 -3.1855,-0.66003 -7.72,-3.53701 -10.1881,-6.46407 -2.5113,-2.97819 -4.6036,-6.85666 -5.5985,-10.37785 -1.0806,-3.82393 -0.9559,-9.87404 0.2757,-13.3905 0.9833,-2.80718 3.5181,-5.63424 6.3444,-7.07575 2.0072,-1.023797 3.3573,-1.177267 10.3848,-1.180507 3.9741,-0.002 6.8131,-0.10468 6.8131,-0.24683 0,-0.61179 -2.6622,-2.82582 -4.3641,-3.62941 -2.9778,-1.40601 -4.8395,-1.77126 -8.2036,-1.60941 -7.151,0.34404 -12.365,3.73418 -15.4741,10.061127 -1.4117,2.87273 -2.1091,5.73835 -2.3023,9.45979 -0.1967,3.78981 0.1865,6.63518 1.3759,10.21634 1.5586,4.69315 3.721,8.37219 6.874,11.69545 3.6348,3.83116 7.4367,5.92594 11.5108,6.34237 1.6074,0.16429 6.0428,-0.093 6.3162,-0.36632 z m 19.947,-5.01687 c 1.8279,-2.57287 2.8405,-4.7751 2.8408,-6.17802 2e-4,-0.95628 -0.1519,-1.30309 -0.8994,-2.05052 -1.7127,-1.71271 -2.9625,-1.08088 -4.7098,2.38099 -0.8453,1.67471 -1.477,2.60709 -3.1843,4.69987 l -1.0063,1.23357 1.6441,2.18193 1.6442,2.18194 1.1774,-1.29884 c 0.6477,-0.71436 1.7696,-2.13227 2.4933,-3.15092 z m 15.541,1.71979 c 0.291,-0.29104 0.5292,-0.65606 0.5292,-0.81114 0,-0.51041 -0.5319,-1.28834 -1.0822,-1.58285 -0.7484,-0.40055 -1.8282,0.31381 -1.8282,1.20947 0,0.72626 0.8384,1.71369 1.4552,1.71369 0.2182,0 0.635,-0.23813 0.926,-0.52917 z m 63.16195,-1.91823 c 0.5835,-0.75407 0.5698,-1.26526 -0.053,-1.98085 -0.6096,-0.70044 -0.6674,-0.71409 -1.3775,-0.32516 -0.9022,0.49416 -1.06022,1.12743 -0.4961,1.98829 0.4591,0.70067 1.4978,0.87196 1.9267,0.31772 z m -20.83155,-2.71047 c 1.1252,-0.58187 1.5904,-1.40955 1.5904,-2.82968 0,-1.08403 -0.1275,-1.38274 -0.9348,-2.19009 -0.7982,-0.79819 -1.1122,-0.93486 -2.1478,-0.93486 -1.0562,0 -1.3457,0.13274 -2.2402,1.0272 -0.8658,0.86583 -1.0272,1.2011 -1.0272,2.13406 0,1.38468 0.3337,2.01889 1.406,2.67274 1.0085,0.61494 2.3074,0.66166 3.3536,0.12063 z m -2.3254,-2.0388 c -0.7841,-0.78407 -0.01,-1.97792 1.1051,-1.6987 0.7638,0.19171 0.9654,0.62046 0.6678,1.42089 -0.2444,0.6575 -1.2376,0.81313 -1.7729,0.27781 z m -120.276,-6.58987 c 2.1972,-2.06413 0.7456,-5.79263 -2.2552,-5.79263 -1.8081,0 -3.0261,0.93685 -3.3515,2.57795 -0.2262,1.141 0.01,1.97344 0.836,2.95603 1.1875,1.41128 3.4152,1.53206 4.7707,0.25865 z m -3.0198,-1.61221 c -0.4427,-0.44272 -0.3963,-1.40442 0.087,-1.80567 0.3094,-0.25683 0.5585,-0.26579 1.0583,-0.0381 1.061,0.48343 0.7468,2.16124 -0.4047,2.16124 -0.2328,0 -0.5662,-0.14288 -0.7408,-0.3175 z m 91.8852,0.4166 c 0.6568,-0.65685 0.4198,-1.98282 -0.4404,-2.46332 -0.6475,-0.3617 -0.7574,-0.35305 -1.2567,0.0989 -0.6591,0.59642 -0.7089,1.64824 -0.1094,2.31063 0.5419,0.59877 1.2407,0.61958 1.8065,0.0538 z m 9.1327,-0.36369 c 0.6438,-0.64382 0.6732,-1.25438 0.091,-1.89739 -0.5825,-0.64366 -1.5579,-0.61368 -2.0314,0.0624 -0.4701,0.67113 -0.2929,1.45893 0.4444,1.97535 0.7215,0.50536 0.8633,0.49205 1.4957,-0.14039 z m -112.3818,-7.08978 c 0.7046,-0.60956 0.5904,-1.97109 -0.2345,-2.79601 -0.872,-0.87201 -1.7812,-0.88869 -2.6218,-0.0481 -1.0669,1.06691 -0.8282,2.62926 0.486,3.18187 0.8861,0.37255 1.6801,0.25941 2.3703,-0.33775 z m 174.09295,-2.25479 c 3.3869,-1.66318 5.2295,-5.69592 4.0334,-8.82781 -0.5733,-1.50128 -2.2283,-3.35959 -3.6878,-4.14106 l -1.0703,-0.573017 -23.65132,-0.0717 c -23.26783,-0.0705 -23.66933,-0.063 -24.75593,0.463017 -1.0019,0.48497 -1.626,0.53472 -6.7089,0.53472 h -5.6042 l -1.0926,0.98711 -1.0927,0.98712 -30.6649,0.10217 -30.6649,0.10216 -0.842,0.56738 c -0.945,0.63686 -2.6879,2.79459 -2.4497,3.03278 0.2128,0.2128 51.6788,0.0623 66.8053,-0.19539 7.2057,-0.12274 12.5725,-0.11102 12.9533,0.0283 0.3591,0.13137 6.6215,0.21729 13.9878,0.19192 10.66363,-0.0367 13.37993,0.0227 13.54913,0.29634 0.1163,0.18826 0.2115,0.84263 0.2115,1.45415 0,2.40629 2.09152,4.75818 5.06952,5.70066 0.3647,0.11544 3.6992,0.18668 7.41,0.15832 l 6.7469,-0.0515 z m -14.4169,-3.11204 c -0.2546,-0.14833 -0.6484,-0.62825 -0.875,-1.06649 -0.3345,-0.64688 -0.3554,-0.96837 -0.1111,-1.70867 0.3481,-1.05478 0.9244,-1.43698 2.1667,-1.43698 1.0959,0 1.9266,0.55781 2.2615,1.51859 0.322,0.92353 0.044,1.69019 -0.876,2.41362 -0.7689,0.60481 -1.8128,0.71869 -2.5661,0.27993 z m 9.7621,-0.36304 c -0.5349,-0.49573 -0.7001,-0.90153 -0.7001,-1.7198 0,-1.35915 0.7099,-2.1293 1.9628,-2.1293 1.2692,0 1.7037,0.21789 2.1481,1.07726 0.5834,1.12822 0.4724,1.80572 -0.4347,2.65305 -1.0172,0.95022 -2.0351,0.99085 -2.9761,0.11879 z m -149.91685,-3.65066 c 0,-0.1819 0.2974,-0.92099 0.6507,-1.64241 0.3533,-0.72143 0.606,-1.34805 0.5615,-1.3925 -0.1083,-0.10827 -4.7568,-0.28997 -15.9048,-0.6217 -10.9101,-0.32464 -15.224599,-0.61596 -16.670499,-1.12559 -1.2068,-0.42533 -2.064199,-0.22146 -2.500899,0.59466 -0.4144,0.77427 -0.072,1.79313 0.815599,2.42497 0.9912,0.70575 2.602,0.91747 10.815099,1.42153 8.9838,0.55135 9.2612,0.56197 16.2058,0.62079 4.6625,0.0395 6.0211,-0.0236 6.0275,-0.27975 z m 54.4959,-7.629927 c 0,-0.57981 -1.9591,-3.76757 -3.6992,-6.0191 -3.4673,-4.48636 -8.4831,-8.23384 -14.2701,-10.6617 -7.5936,-3.18584 -16.8185,-3.01825 -24.3068,0.44156 -2.9821,1.3778 -6.1957,3.63706 -7.8441,5.51457 -0.8105,0.92312 -1.4735,1.73899 -1.4735,1.81306 0,0.0741 0.7135,0.27506 1.5857,0.44665 0.8721,0.17158 2.2629,0.53539 3.0907,0.80845 l 1.5049,0.49648 1.2088,-1.06521 c 4.026,-3.54769 9.4448,-5.20173 16.0255,-4.89165 3.9988,0.18843 6.5222,0.83529 9.9202,2.54306 3.1911,1.60377 4.0226,2.11424 7.8784,4.83681 3.0491,2.15294 3.8076,2.9275 4.7984,4.90028 l 0.5648,1.12448 h 2.5081 c 1.6303,0 2.5082,-0.10071 2.5082,-0.28774 z m 20.1083,0.0497 c 0,-0.3926 -2.8758,-2.89751 -4.8764,-4.24745 -4.0659,-2.7436 -8.649,-4.54631 -12.9341,-5.08754 -1.4001,-0.17683 -2.6167,-0.25039 -2.7037,-0.16347 -0.087,0.0869 0.604,1.15234 1.5354,2.36758 0.9314,1.21525 1.9067,2.57846 2.1674,3.02936 0.3708,0.64123 0.8184,0.92296 2.0547,1.29331 0.8694,0.26043 2.6701,1.04075 4.0015,1.73406 l 2.4209,1.26056 4.1671,0.0258 c 2.3111,0.0143 4.1672,-0.0802 4.1672,-0.21222 z m 15.5024,-0.68854 c 1.4112,-1.07641 4.9278,-2.7213 7.1587,-3.34847 2.6627,-0.74859 7.3389,-0.81618 9.7886,-0.14147 1.7559,0.48364 7.5024,0.64221 7.5024,0.20703 0,-0.25322 -1.7512,-1.98237 -2.9599,-2.92262 -1.2024,-0.93531 -4.3576,-2.37763 -6.0999,-2.78844 -3.9226,-0.92483 -8.7915,-0.23476 -13.0329,1.84716 -3.7556,1.84347 -6.2017,3.96749 -8.1548,7.0812 l -0.4563,0.7276 h 2.6931 c 2.4655,0 2.7664,-0.0559 3.561,-0.66199 z m -114.317,-0.72706 c 2.532,-3.85248 5.2773,-5.97675 9.5365,-7.37899 2.4228,-0.79767 6.916,-0.87794 8.2596,-0.14755 0.6931,0.3768 1.1906,0.43665 2.4474,0.29447 0.8675,-0.0982 1.5774,-0.27036 1.5774,-0.38266 0,-0.11231 0.5358,-0.91694 1.1906,-1.78808 0.6549,-0.87113 1.1906,-1.65442 1.1906,-1.74063 0,-0.64393 -4.7444,-2.13553 -8.1314,-2.55641 -7.4266,-0.92287 -15.5892,2.9634 -19.095299,9.0915 -0.6408,1.11993 -2.142,4.88151 -2.142,5.36708 0,0.0829 1.7821,0.25349 3.338299,0.31952 1.0088,0.0428 1.1439,-0.0368 1.8283,-1.07825 z m 105.607,-3.85462 c -1.4651,-0.1131 -2.5122,0.10888 -3.577,0.75833 l -0.8857,0.54019 1.1503,1.15403 1.1502,1.15403 1.6271,-1.76114 1.6271,-1.76114 z m -63.9804,0.79391 c 1.8084,-1.39856 3.8721,-2.51543 6.2557,-3.38569 l 2.3813,-0.86937 -2.3021,-0.0132 c -3.5856,-0.0206 -6.3755,0.74318 -8.8786,2.43061 l -1.1265,0.75942 1.1265,0.89152 c 0.6196,0.49033 1.2285,0.90069 1.353,0.91192 0.1246,0.0112 0.6604,-0.31512 1.1907,-0.7252 z m 106.66513,0.4569 c 0,-0.59606 -2.41863,-4.92808 -3.56103,-6.37835 -2.6335,-3.34288 -7.3643,-6.5576 -11.5202,-7.82823 -2.9351,-0.89737 -6.2571,-1.20637 -9.062,-0.84292 -2.9028,0.37613 -5.4512,1.11001 -7.0383,2.02688 l -1.1514,0.66513 1.0191,0.6263 c 0.5604,0.34446 1.1107,0.63001 1.2227,0.63455 0.1121,0.005 0.7074,0.33007 1.3229,0.72338 1.0997,0.70265 1.1978,0.71548 5.6172,0.73514 5.1054,0.0227 6.4845,0.29531 10.145,2.00529 3.8436,1.79547 7.0218,4.50932 8.3983,7.17136 0.3769,0.72869 0.4484,0.75017 2.4978,0.75017 1.3477,0 2.10993,-0.10429 2.10993,-0.2887 z m 25.34392,-0.57119 c -1.2565,-3.68479 -5.8508,-7.69145 -10.1303,-8.83461 -1.8031,-0.48165 -5.02442,-0.44977 -6.76502,0.067 -2.7805,0.82544 -6.3319,2.89618 -6.3319,3.69199 0,0.21313 0.4677,1.3084 1.0394,2.43393 0.5717,1.12553 1.1204,2.37384 1.2193,2.77402 l 0.1799,0.7276 h 10.54092 10.5409 z m -74.29185,-3.03827 c 2.6534,-1.31983 4.7399,-1.75488 7.4883,-1.56132 1.2809,0.0902 2.5545,0.28469 2.8301,0.43219 0.3872,0.20725 0.7092,0.12688 1.4175,-0.35375 0.989,-0.67113 3.9521,-2.17233 4.7801,-2.4217 0.4855,-0.14623 0.4819,-0.17197 -0.078,-0.56428 -1.0407,-0.72892 -3.5802,-1.6391 -5.8652,-2.1021 -4.9392,-1.0008 -11.5506,0.38015 -16.3709,3.41945 l -1.387,0.87453 2.3955,1.38253 c 1.3175,0.76038 2.4689,1.50123 2.5585,1.64632 0.09,0.1451 0.2415,0.22776 0.3373,0.1837 0.096,-0.0441 0.9481,-0.46507 1.894,-0.93557 z m -7.0586,-6.78463 c 0.608,-0.34574 1.9684,-0.95978 3.0232,-1.36451 1.8484,-0.70931 1.8971,-0.75032 1.3476,-1.13522 -0.3136,-0.21963 -1.7294,-0.9095 -3.1462,-1.53304 -8.0469,-3.54144 -17.9658,-3.77009 -25.8499,-0.59588 -0.4729,0.19041 -0.8598,0.42101 -0.8598,0.51243 0,0.0914 1.179,0.95124 2.6201,1.9107 l 2.6201,1.74447 2.4731,-0.37646 c 4.6162,-0.70268 10.9801,-0.25947 15.0408,1.04752 1.5657,0.50393 1.4615,0.51195 2.731,-0.21001 z"
       id="path1"
       transform="matrix(0.71487588,0,0,0.71487588,-54.656008,-13.591159)" /><path
       style="fill:#ffffff;stroke:#f9f9f9;stroke-width:0.623178"
       d="m 167.46954,447.80522 c -3.90496,-1.05039 -8.41545,-4.93177 -10.63989,-9.15589 -1.45414,-2.76136 -1.72307,-3.93405 -1.5104,-6.58626 0.40212,-5.01491 4.55612,-9.54841 8.7491,-9.54841 1.42049,0 1.47885,0.17512 1.43309,4.30035 -0.0434,3.91159 0.12677,4.5172 1.8822,6.69916 3.61767,4.49669 -4.73039,4.17031 113.35803,4.43188 104.40421,0.23125 145.58731,-0.2314 149.56999,-1.68027 1.03225,-0.37552 2.68273,-1.69279 3.66774,-2.92726 1.70833,-2.14099 1.77467,-2.45926 1.43864,-6.90233 l -0.35227,-4.65785 1.63195,0.40959 c 2.37324,0.59565 4.99004,2.6295 7.0604,5.48754 2.07172,2.85993 2.40982,6.54025 0.92688,10.08943 -1.29199,3.09215 -5.7801,7.69127 -9.19367,9.42106 l -2.96439,1.50217 -131.04389,-0.0421 c -104.50347,-0.0335 -131.64532,-0.20384 -134.01351,-0.84085 z"
       id="path41"
       transform="matrix(0.26458333,0,0,0.26458333,1.1436092,0.94241819)" /><path
       style="fill:#ffffff;stroke:#f9f9f9;stroke-width:0.623178"
       d="m 195.98947,398.73593 c -5.07643,-1.89325 -10.65968,-7.88214 -12.19787,-13.0841 -2.36232,-7.98905 2.10175,-16.90966 10.26315,-20.50897 4.13801,-1.82494 10.98715,-1.86488 14.44317,-0.0842 3.84823,1.98273 7.66427,5.60838 9.70067,9.21668 1.02873,1.82282 2.43474,3.49332 3.12447,3.71222 1.37169,0.43536 12.21146,-0.0649 22.02793,-1.01658 9.21222,-0.89311 18.87358,-2.83904 25.81475,-5.19945 l 6.14754,-2.09053 7.02524,4.53552 7.02525,4.53551 -1.81834,0.92606 c -6.43408,3.2768 -21.14624,6.92325 -32.46751,8.04714 -7.38581,0.73322 -15.04835,0.30979 -32.08493,-1.77299 -2.9035,-0.35497 -2.91154,-0.35071 -4.23344,2.24044 -1.81241,3.55261 -5.28799,7.27079 -8.62367,9.22563 -2.21114,1.29582 -3.75985,1.67077 -7.53026,1.8231 -2.61064,0.10548 -5.58791,-0.12198 -6.61615,-0.50546 z m 9.03608,-13.61195 c 0.8309,-0.83091 1.24635,-2.07726 1.24635,-3.73907 0,-3.1617 -1.68449,-4.98542 -4.60479,-4.98542 -2.63343,0 -4.6265,1.5971 -5.1078,4.09302 -0.84913,4.40347 5.31961,7.7781 8.46624,4.63147 z"
       id="path42"
       transform="matrix(0.26458333,0,0,0.26458333,1.1436092,0.94241819)" /><path
       style="fill:#ffffff;stroke:#f9f9f9;stroke-width:0.623178"
       d="M 169.19282,361.62485 C 154.36376,359.51986 133.58901,349.57751 118.40381,337.31834 107.66688,328.6503 94.448576,313.55076 86.605921,300.99495 81.366544,292.6069 75.405553,279.89586 75.405003,277.11046 c -5.68e-4,-2.87887 2.726094,-6.02805 5.219283,-6.02805 4.083808,0 4.378055,0.36862 13.844741,17.34415 12.355703,22.15607 32.346433,41.53509 53.834133,52.1868 3.60611,1.78759 10.20215,4.57996 14.65788,6.20527 12.87261,4.69552 14.64468,5.86191 14.64468,9.63916 0,3.77531 -3.41999,5.87582 -8.4129,5.16706 z"
       id="path43"
       transform="matrix(0.26458333,0,0,0.26458333,1.1436092,0.94241819)" /><path
       style="fill:#ffffff;stroke:#f9f9f9;stroke-width:0.623178"
       d="m 109.44208,282.28459 c -3.38381,-1.02527 -6.61772,-5.12375 -6.61772,-8.38695 0,-0.8849 0.40377,-2.57526 0.89727,-3.75637 2.57814,-6.17036 12.63019,-6.19973 15.5506,-0.0454 3.24796,6.84457 -2.78392,14.32369 -9.83015,12.18874 z m 4.56821,-5.86748 c 1.22706,-1.47852 0.53025,-4.25592 -1.32829,-5.29437 -1.52513,-0.85217 -1.78377,-0.83184 -2.96009,0.23272 -1.53209,1.38652 -1.67088,3.61824 -0.30967,4.97945 1.22455,1.22455 3.61453,1.26727 4.59805,0.0822 z"
       id="path44"
       transform="matrix(0.26458333,0,0,0.26458333,1.1436092,0.94241819)" /><path
       style="fill:#ffffff;stroke:#f9f9f9;stroke-width:0.623178"
       d="m 72.930658,257.83674 c -0.84651,-0.43662 -1.948085,-1.5225 -2.447945,-2.41307 -1.952373,-3.47839 2.291245,-8.28675 5.873137,-6.65473 1.845926,0.84106 3.410929,3.44336 3.410929,5.67172 0,2.87297 -3.998827,4.85952 -6.836121,3.39608 z"
       id="path45"
       transform="matrix(0.26458333,0,0,0.26458333,1.1436092,0.94241819)" /><path
       style="fill:#ffffff;stroke:#f9f9f9;stroke-width:0.623178"
       d="m 89.426037,231.75094 c -16.440523,-0.83958 -37.128719,-2.40935 -41.362258,-3.13847 -6.369936,-1.09706 -9.511262,-4.90111 -6.845653,-8.28988 1.456943,-1.8522 1.694083,-1.86295 8.688175,-0.39394 4.109936,0.86324 21.603297,1.77852 55.074129,2.88156 16.09536,0.53043 29.34362,1.04374 29.44056,1.14068 0.0969,0.0969 -0.58128,1.89024 -1.50716,3.98511 -1.08062,2.445 -2.13891,3.93123 -2.95549,4.15061 -1.82038,0.48905 -28.75001,0.26603 -40.532303,-0.33567 z"
       id="path46"
       transform="matrix(0.26458333,0,0,0.26458333,1.1436092,0.94241819)" /><path
       style="fill:#ffffff;stroke:#f9f9f9;stroke-width:0.623178"
       d="m 214.37322,353.0137 c -15.5316,-2.43563 -30.66104,-10.15452 -43.09412,-21.98622 -12.24379,-11.65155 -21.27792,-26.11901 -26.99149,-43.22476 -3.3202,-9.94029 -4.22679,-17.24466 -3.89288,-31.36499 0.24616,-10.40941 0.48087,-12.55587 1.9421,-17.76057 1.72843,-6.15645 4.4213,-12.51595 6.58854,-15.55957 1.89284,-2.65824 1.57714,-3.57751 -1.81974,-5.29884 -9.05114,-4.58656 -14.87099,-5.42211 -43.3465,-6.22322 -7.197706,-0.2025 -15.189963,-0.53263 -17.760572,-0.73363 l -4.673835,-0.36545 4.673835,-2.35209 c 16.873232,-8.49142 41.526582,-12.09858 57.332372,-8.3886 7.45327,1.74945 18.43168,6.67118 22.481,10.07846 l 1.73424,1.45926 -3.95094,7.61585 c -16.09812,31.03086 -12.06182,65.93401 10.93035,94.51807 7.71203,9.58766 14.2814,14.87051 24.46872,19.67688 8.73492,4.12113 14.08828,5.34113 25.03818,5.70604 7.272,0.24234 10.3855,0.0843 14.0215,-0.71174 9.31271,-2.03887 8.01215,-2.41643 12.99214,3.77168 l 4.42018,5.49249 -2.007,0.85035 c -3.94273,1.67054 -12.6985,3.96122 -18.52121,4.84552 -7.1325,1.08323 -13.45898,1.06941 -20.56487,-0.0449 z"
       id="path47"
       transform="matrix(0.26458333,0,0,0.26458333,1.1436092,0.94241819)" /><path
       style="fill:#ffffff;stroke:#f9f9f9;stroke-width:0.623178"
       d="m 53.65278,209.43774 c -0.721066,-0.45651 -0.454982,-1.61626 1.510137,-6.5821 2.943706,-7.43871 4.945254,-10.64088 9.863702,-15.78043 10.5762,-11.05164 25.498956,-16.91778 41.093691,-16.15396 9.76762,0.47842 24.74706,4.53003 24.74706,6.69355 0,0.73366 -5.46823,8.73957 -6.43082,9.41522 -1.437,1.00863 -6.88167,1.09045 -9.06318,0.1362 -1.39109,-0.60851 -4.794,-1.10403 -8.80994,-1.28288 -8.209734,-0.36562 -13.997032,0.78097 -21.073559,4.17513 -8.202944,3.93443 -12.596733,7.7839 -19.039484,16.68082 l -2.369208,3.27168 -4.776554,-0.01 c -2.627104,-0.005 -5.170435,-0.25891 -5.651845,-0.56369 z"
       id="path48"
       transform="matrix(0.26458333,0,0,0.26458333,1.1436092,0.94241819)" /><path
       style="fill:#ffffff;stroke:#f9f9f9;stroke-width:0.623178"
       d="m 263.92883,208.29575 c -2.47017,-4.76562 -5.95003,-8.03829 -15.96058,-15.01029 -9.64619,-6.71825 -23.52592,-13.8444 -30.79073,-15.80863 -4.3563,-1.17784 -6.63687,-1.34971 -18.07216,-1.36196 -11.64115,-0.0125 -13.63744,0.13903 -18.07216,1.3715 -8.40651,2.33629 -16.50457,6.64653 -22.26483,11.85058 l -2.37184,2.14281 -5.77903,-1.64001 c -3.17846,-0.902 -6.09997,-1.64001 -6.49223,-1.64001 -0.39226,0 -1.45338,-0.28141 -2.35803,-0.62536 l -1.64484,-0.62537 2.96258,-3.46773 c 6.03554,-7.06467 19.53136,-15.54402 30.15849,-18.94842 13.16928,-4.21876 29.08671,-5.18729 41.75275,-2.54051 16.65812,3.48098 33.95497,12.85953 46.37265,25.14378 7.86105,7.77658 18.27269,23.05339 16.48398,24.18662 -0.46764,0.29627 -3.37412,0.5423 -6.45885,0.54673 l -5.6086,0.008 z"
       id="path49"
       transform="matrix(0.26458333,0,0,0.26458333,1.1436092,0.94241819)" /><path
       style="fill:#ffffff;stroke:#f9f9f9;stroke-width:0.623178"
       d="m 172.14982,198.54308 -2.65161,-2.10812 2.96889,-1.90513 c 6.71385,-4.30827 13.84687,-6.32201 22.27601,-6.28881 l 4.98543,0.0196 -3.74316,1.44194 c -5.56833,2.14502 -11.35055,5.16498 -15.76101,8.23172 -2.1586,1.50094 -4.26182,2.72626 -4.67384,2.72293 -0.41201,-0.003 -1.94233,-0.9547 -3.40071,-2.11417 z"
       id="path50"
       transform="matrix(0.26458333,0,0,0.26458333,1.1436092,0.94241819)" /><path
       style="fill:#ffffff;stroke:#f9f9f9;stroke-width:0.623178"
       d="m 215.30798,324.74971 c -15.08027,-4.37022 -30.04781,-18.72241 -38.63973,-37.05117 -3.24888,-6.9307 -5.55184,-13.75244 -6.91675,-20.48854 -1.44564,-7.13453 -0.91409,-24.23747 0.97394,-31.33714 1.71228,-6.43879 6.67795,-16.39269 10.65181,-21.35202 5.8411,-7.28962 15.18387,-13.18447 24.58306,-15.51077 6.37149,-1.57695 20.58759,-1.5678 25.23871,0.0162 5.6091,1.91028 11.77583,5.40902 15.45288,8.76728 l 3.45138,3.15216 -2.75297,0.42119 c -1.51413,0.23166 -9.20285,0.4441 -17.08605,0.47209 -16.27379,0.0578 -20.83381,0.59938 -26.25764,3.1186 -5.36659,2.49263 -12.52264,9.42032 -15.4135,14.92163 -3.63479,6.91703 -4.39306,11.13659 -4.38065,24.37736 0.0101,10.79178 0.12053,11.88733 1.7273,17.13739 3.50475,11.45168 11.17965,24.31616 18.61231,31.19749 6.87045,6.36083 16.2361,11.7907 23.58501,13.67375 5.09324,1.30508 6.45115,2.20732 8.73209,5.80193 l 1.85295,2.92013 -1.42464,0.40527 c -0.78355,0.2229 -5.21044,0.41324 -9.83754,0.42299 -6.18592,0.013 -9.40266,-0.26912 -12.15197,-1.06585 z"
       id="path51"
       transform="matrix(0.26458333,0,0,0.26458333,1.1436092,0.94241819)" /><path
       style="fill:#ffffff;stroke:#f9f9f9;stroke-width:0.623178"
       d="m 194.63266,397.58311 c -3.27065,-1.66765 -8.00142,-6.67663 -9.57063,-10.13349 -1.78228,-3.92621 -1.62975,-9.36908 0.37532,-13.39273 3.12331,-6.26766 8.76561,-9.63627 16.14043,-9.63627 6.66227,0 11.14883,2.69143 15.81323,9.48615 1.29408,1.88512 3.03737,3.74803 3.87399,4.13981 1.09886,0.51459 4.20254,0.56013 11.18038,0.16407 15.58158,-0.88441 27.12817,-2.80979 37.13438,-6.1921 6.11819,-2.06808 5.11143,-2.30388 13.39963,3.13844 l 5.49319,3.60703 -2.98253,1.28305 c -4.26936,1.83663 -12.70884,4.19977 -20.80925,5.82681 -8.51274,1.70987 -23.74055,1.85046 -35.92009,0.33165 -4.25443,-0.53054 -8.05508,-0.84192 -8.44588,-0.69195 -0.39081,0.14996 -1.22873,1.17527 -1.86205,2.27845 -2.17573,3.78989 -5.40786,7.29828 -8.26747,8.97412 -4.03553,2.36498 -11.72448,2.76887 -15.55265,0.81696 z m 10.18818,-12.0814 c 1.38639,-1.19253 1.73433,-2.01843 1.73433,-4.1168 0,-2.09837 -0.34794,-2.92427 -1.73433,-4.1168 -1.9113,-1.64403 -3.32351,-1.84509 -5.61769,-0.79979 -3.64049,1.65872 -3.90747,6.79667 -0.47302,9.10315 2.68703,1.80453 3.92824,1.79031 6.09071,-0.0698 z"
       id="path52"
       transform="matrix(0.26458333,0,0,0.26458333,1.1436092,0.94241819)" /><path
       style="fill:#ffffff;stroke:#f9f9f9;stroke-width:0.623178"
       d="m 194.57959,396.89492 c -3.10698,-1.53793 -7.30858,-6.0435 -8.94283,-9.58982 -1.51189,-3.2808 -1.51774,-9.16132 -0.0124,-12.46356 2.94483,-6.46003 8.13226,-9.65926 15.66212,-9.65926 6.00067,0 10.05083,1.83874 13.45176,6.10697 1.28365,1.61101 3.32593,3.98073 4.5384,5.26603 2.15306,2.28241 2.30975,2.33692 6.7179,2.33692 12.07268,0 30.00521,-2.41833 39.79086,-5.36607 9.2629,-2.79028 9.40342,-2.77814 15.99686,1.38218 l 5.74124,3.62261 -2.70619,1.18008 c -3.93491,1.7159 -12.54271,4.12441 -19.3435,5.41243 -11.02299,2.08767 -19.78422,2.13802 -40.87708,0.23492 l -4.42116,-0.3989 -3.48886,4.60031 c -5.19447,6.84928 -8.46683,8.65141 -15.7077,8.65046 -2.55258,-3.3e-4 -4.58806,-0.41869 -6.39942,-1.3153 z m 9.21208,-10.21945 c 2.19569,-1.13543 3.10341,-2.68288 3.10341,-5.29056 0,-2.62634 -0.90985,-4.15623 -3.16551,-5.32267 -2.94657,-1.52374 -6.8458,0.42341 -7.70526,3.84776 -0.54716,2.18006 1.26002,5.55096 3.59267,6.70132 2.42154,1.1942 2.00188,1.18775 4.17469,0.0642 z"
       id="path53"
       transform="matrix(0.26458333,0,0,0.26458333,1.1436092,0.94241819)" /><path
       style="fill:#ffffff;stroke:#f9f9f9;stroke-width:0.623178"
       d="m 171.97943,447.49484 c -5.31981,-0.3267 -6.20234,-0.55925 -8.47851,-2.23419 -6.9461,-5.11133 -9.33724,-11.49768 -6.43494,-17.18667 1.36815,-2.68179 4.4094,-4.93006 6.67403,-4.93382 1.30712,-0.002 1.40215,0.26587 1.40215,3.95483 0,3.39758 0.26131,4.31788 1.84789,6.5081 1.23044,1.69857 2.636,2.79585 4.20646,3.28389 3.82432,1.18844 148.17952,2.0832 207.07251,1.2835 26.56296,-0.36069 49.39426,-0.927 50.73622,-1.25846 1.40272,-0.34647 3.38957,-1.55448 4.67384,-2.84171 2.19954,-2.2046 2.23178,-2.31069 2.09614,-6.89735 -0.16146,-5.45926 0.23593,-5.70649 4.23221,-2.63298 4.41537,3.39584 6.0171,8.15159 4.28225,12.71458 -1.10975,2.91884 -4.89795,7.01642 -8.27991,8.9561 l -3.21268,1.8426 -127.43989,-0.0969 c -70.09194,-0.0533 -130.11194,-0.26098 -133.37777,-0.46154 z"
       id="path54"
       transform="matrix(0.26458333,0,0,0.26458333,1.1436092,0.94241819)" /><path
       style="fill:#ffffff;stroke:#f9f9f9;stroke-width:0.623178"
       d="m 283.82923,406.65194 c -2.19684,-2.19684 -2.03115,-4.79253 0.43859,-6.87068 2.33289,-1.963 4.43966,-1.74953 6.60049,0.66879 1.72202,1.92722 1.75528,3.09405 0.16263,5.70618 -1.02096,1.67449 -1.61919,2.02533 -3.45348,2.02533 -1.52466,0 -2.69705,-0.47844 -3.74823,-1.52962 z"
       id="path55"
       transform="matrix(0.26458333,0,0,0.26458333,1.1436092,0.94241819)" /><path
       style="fill:#ffffff;stroke:#f9f9f9;stroke-width:0.623178"
       d="m 309.34535,402.71921 c -1.16113,-0.77531 -2.13446,-3.11891 -1.73148,-4.16907 0.21047,-0.54848 0.94556,-1.29848 1.63353,-1.66667 2.58411,-1.38297 6.07417,3.13305 4.18265,5.4122 -0.79553,0.95855 -2.94903,1.18185 -4.0847,0.42354 z"
       id="path56"
       transform="matrix(0.26458333,0,0,0.26458333,1.1436092,0.94241819)" /><path
       style="fill:#ffffff;stroke:#f9f9f9;stroke-width:0.623178"
       d="m 308.82001,401.18794 c -1.29524,-1.84922 -1.22242,-2.79834 0.27626,-3.6004 0.88199,-0.47203 1.60857,-0.47318 2.48535,-0.004 1.32696,0.71016 2.2568,3.24731 1.58719,4.33076 -0.71267,1.15313 -3.33967,0.71432 -4.3488,-0.72642 z"
       id="path57"
       transform="matrix(0.26458333,0,0,0.26458333,1.1436092,0.94241819)" /><path
       style="fill:#ffffff;stroke:#f9f9f9;stroke-width:0.623178"
       d="m 370.16771,400.78927 c -6.26753,-1.333 -14.36388,-8.28607 -16.54484,-14.20856 -0.61058,-1.65807 -1.27937,-3.21623 -1.4862,-3.46257 -0.20683,-0.24634 -3.87617,-0.58123 -8.1541,-0.7442 -18.80591,-0.7164 -33.03019,-5.3044 -48.90781,-15.77507 -11.88199,-7.83571 -23.45294,-18.47493 -32.6213,-29.99455 -5.65317,-7.10294 -14.94148,-20.83686 -17.8397,-26.37822 l -1.85313,-3.54315 -3.99768,-0.69616 c -7.53994,-1.31303 -13.36556,-5.49631 -16.68511,-11.98131 -2.38876,-4.66663 -2.76161,-11.81961 -0.87658,-16.81694 1.75683,-4.65748 6.00347,-9.32207 10.49468,-11.52755 3.093,-1.51887 4.28088,-1.74513 9.16234,-1.74513 4.73012,0 6.14628,0.25224 9.04135,1.61036 1.88801,0.88569 4.44319,2.70848 5.67818,4.05065 1.23499,1.34217 3.19563,3.47629 4.35698,4.7425 l 2.11154,2.30219 16.7996,-4.86103 c 9.23978,-2.67356 17.02041,-5.25191 17.2903,-5.72967 0.2699,-0.47775 1.06998,-2.47297 1.77796,-4.43383 2.63939,-7.31011 9.29165,-11.97359 17.10227,-11.98932 7.63436,-0.0154 14.36521,4.28133 17.5276,11.18891 2.52022,5.50488 2.50921,8.1837 -0.0668,16.25687 -0.34932,1.09476 1.89163,3.40491 14.35705,14.80047 8.12405,7.42678 15.16633,13.50324 15.64953,13.50324 0.4832,0 2.0592,-0.60732 3.50222,-1.3496 1.77329,-0.91216 4.13858,-1.43359 7.29752,-1.60873 4.09428,-0.22699 5.06002,-0.0605 7.78828,1.34299 l 3.11445,1.60211 8.61316,-8.56208 c 4.73725,-4.70915 10.01789,-10.16784 11.73477,-12.13044 l 3.1216,-3.56835 -1.60669,-4.01607 c -3.05236,-7.62971 -1.77922,-14.62669 3.6444,-20.02911 4.04233,-4.02652 8.57055,-5.6184 14.42643,-5.07157 16.08971,1.50248 23.03684,21.00365 11.19552,31.42679 -5.67003,4.99096 -12.31566,6.27264 -19.66151,3.79191 l -3.98675,-1.34635 -8.92564,9.29186 c -4.9091,5.11053 -9.90199,10.4451 -11.09531,11.85461 l -2.16966,2.56274 1.52508,3.35745 c 0.8388,1.8466 1.85656,4.69271 2.26169,6.3247 0.58942,2.37434 1.0639,3.0592 2.37457,3.42748 3.01002,0.84575 30.57353,0.53031 35.28957,-0.40387 15.18654,-3.00824 28.31217,-9.96874 38.17898,-20.24624 7.71745,-8.03867 12.21372,-15.47218 17.19771,-28.43231 3.83657,-9.97647 5.27101,-11.44697 9.20655,-9.43801 6.22121,3.1757 5.99838,10.15669 -0.79625,24.94504 -3.55039,7.72735 -8.77584,15.11419 -15.97694,22.58543 -7.41216,7.69022 -13.15624,11.87471 -22.10848,16.10576 -12.47919,5.89797 -19.70696,7.4964 -33.89724,7.4964 -9.56941,0 -15.55824,-0.78958 -24.08522,-3.17545 l -6.7306,-1.88323 -3.31668,3.3701 c -4.78917,4.8663 -8.18391,6.36534 -14.38103,6.35037 -4.16959,-0.0101 -5.49531,-0.28101 -8.10131,-1.65563 -1.71374,-0.90397 -3.93954,-2.51103 -4.94622,-3.57123 -1.00668,-1.0602 -2.18934,-1.92764 -2.62813,-1.92764 -0.4388,0 -5.50418,3.17703 -11.25641,7.06006 -5.75223,3.88304 -13.03544,8.67593 -16.18491,10.65087 l -5.72631,3.59081 -3.78827,-2.01913 c -2.08355,-1.11052 -3.62014,-2.18725 -3.41466,-2.39274 0.20549,-0.20548 8.6935,-5.45662 18.86225,-11.6692 l 18.48863,-11.29558 -0.16,-3.95754 c -0.10924,-2.70202 0.24905,-5.18673 1.12937,-7.83209 1.10828,-3.33037 1.17451,-4.09333 0.47159,-5.43233 -0.44978,-0.85679 -5.16444,-5.39824 -10.47704,-10.09212 -5.31259,-4.69388 -11.5446,-10.30669 -13.84891,-12.47292 l -4.18965,-3.9386 -3.60008,1.66392 c -4.91433,2.27136 -12.84058,2.41443 -16.8114,0.30345 -3.45189,-1.8351 -9.35941,-7.64925 -9.88013,-9.72397 -0.31954,-1.27314 -0.78479,-1.63627 -2.059,-1.60707 -0.9054,0.0207 -8.79715,2.21755 -17.53722,4.88178 l -15.89104,4.84406 -0.45371,3.60103 c -0.49746,3.94837 -2.75591,9.40746 -5.23839,12.66215 -1.06433,1.39541 -1.47574,2.54946 -1.24152,3.48264 1.13298,4.51418 17.10809,26.40742 25.21432,34.55521 13.02416,13.09094 29.13343,23.64915 43.32293,28.39439 5.22456,1.74719 20.80024,5.69197 25.14634,6.36869 l 2.62095,0.4081 1.66315,-3.51263 c 0.91473,-1.93195 3.14114,-4.99062 4.94757,-6.79705 6.70456,-6.70456 14.55477,-8.75976 23.30619,-6.1016 5.53507,1.68122 10.97636,6.42411 13.5234,11.78764 2.01576,4.24478 2.6447,10.85044 1.49097,15.6597 -1.56958,6.54275 -7.99173,13.68174 -14.31483,15.91266 -3.19894,1.12865 -9.5585,1.65296 -12.48917,1.02965 z m 9.36885,-13.32838 c 9.29,-4.68899 6.01686,-19.19836 -4.31979,-19.14903 -9.84296,0.047 -14.50078,9.53907 -8.29809,16.91055 3.17509,3.77337 7.91197,4.61373 12.61788,2.23848 z m -1.4635,-62.27062 c 1.54469,-1.45117 1.94083,-4.65044 0.83229,-6.72176 -0.99993,-1.86838 -4.12168,-2.64002 -6.55957,-1.6214 -3.65396,1.52672 -4.52286,5.21503 -1.89624,8.0492 1.97502,2.13107 5.5224,2.26786 7.62352,0.29396 z M 245.38202,292.27383 c 2.52076,-1.53693 4.50694,-4.69879 4.51001,-7.17964 0.003,-2.65411 -1.96653,-6.01468 -4.34359,-7.41027 -3.72867,-2.18914 -9.80818,-1.05744 -12.13047,2.25808 -1.23191,1.75881 -1.26576,6.83801 -0.0611,9.1676 2.10568,4.07194 7.99477,5.62156 12.02513,3.16423 z m 181.63127,-19.209 c 0.29262,-0.29262 0.6874,-1.48943 0.87729,-2.65958 0.75137,-4.63016 -4.89972,-7.52105 -8.37431,-4.28399 -2.5258,2.35314 -1.2794,7.70472 1.91331,8.21503 1.58683,0.25364 4.78741,-0.47516 5.58371,-1.27146 z m -107.73857,-1.24434 c 2.10091,-2.32148 1.85531,-6.8187 -0.45669,-8.36247 -1.2269,-0.81922 -5.04654,-0.5019 -6.53864,0.54321 -1.26568,0.88652 -1.41436,1.39342 -1.13519,3.87027 0.21642,1.91999 0.77069,3.21407 1.69841,3.96529 1.7869,1.44695 5.11552,1.43851 6.43211,-0.0163 z"
       id="path58"
       transform="matrix(0.26458333,0,0,0.26458333,1.1436092,0.94241819)" /><path
       style="fill:#ffffff;stroke:#f9f9f9;stroke-width:0.623178"
       d="m 369.54453,400.12067 c -6.18851,-1.88927 -13.18835,-8.17062 -15.52735,-13.93356 -1.62926,-4.01425 -0.25705,-3.57914 -15.00837,-4.7589 -12.80772,-1.02432 -21.70964,-3.43914 -32.40525,-8.79056 -18.18011,-9.09621 -35.79163,-24.78029 -49.65748,-44.22287 -5.23835,-7.34517 -10.33641,-15.29245 -12.24457,-19.08785 -1.51692,-3.0172 -1.77369,-3.22177 -4.57027,-3.64114 -7.6356,-1.14503 -14.35491,-5.67569 -17.48597,-11.79033 -2.33902,-4.56788 -2.68573,-11.76283 -0.80686,-16.74426 1.57103,-4.16527 5.86371,-8.92658 10.03464,-11.13012 2.34664,-1.23975 3.67418,-1.45669 8.98523,-1.46836 5.76167,-0.0127 6.48458,0.12633 9.58281,1.84229 1.8449,1.02179 5.20596,3.86613 7.47813,6.32844 l 4.12711,4.47248 6.23178,-1.84297 c 19.65553,-5.81289 26.90377,-8.19546 27.79514,-9.13655 0.54917,-0.57981 1.63317,-2.66623 2.40891,-4.63649 2.84089,-7.21559 8.83014,-11.30743 16.5343,-11.29617 8.08555,0.0118 14.83245,4.7027 17.6693,12.28486 1.61092,4.30558 1.6429,5.51272 0.29411,11.10097 l -1.04352,4.32344 3.69202,3.77312 c 4.22047,4.31316 21.76137,20.31978 24.84464,22.67152 l 2.05522,1.56758 3.04077,-1.33532 c 1.74107,-0.76458 4.94217,-1.46891 7.48932,-1.64787 3.83269,-0.26928 4.92184,-0.0959 7.86724,1.25257 l 3.41868,1.56513 9.5932,-9.74474 c 5.27626,-5.35961 10.64642,-10.88521 11.9337,-12.27912 l 2.34048,-2.53438 -1.63064,-4.32058 c -2.84763,-7.54512 -1.54349,-14.65066 3.60621,-19.64828 4.6809,-4.54266 10.8788,-5.97864 17.49856,-4.05423 4.94887,1.43868 8.44684,4.34305 10.87129,9.02647 4.78121,9.23605 1.29232,19.07389 -8.53609,24.06978 -3.31928,1.68723 -8.94747,1.84369 -14.03837,0.39025 -3.39028,-0.96792 -4.54937,-1.07982 -5.24966,-0.50683 -0.49429,0.40445 -5.60722,5.74596 -11.36205,11.87003 l -10.46333,11.13466 0.9767,2.26366 c 0.53719,1.24501 1.53865,3.94624 2.22547,6.00273 2.03577,6.09552 1.49449,5.92019 18.27692,5.92019 16.41621,0 21.76878,-0.56428 29.58684,-3.1191 21.15325,-6.91256 35.94028,-20.78329 44.83987,-42.0613 4.02949,-9.63411 6.17602,-13.85943 7.25019,-14.27163 1.36664,-0.52443 5.1237,1.3743 6.31401,3.19096 1.39475,2.12866 1.19248,7.74473 -0.45519,12.63861 -6.7358,20.00646 -21.99301,37.75012 -40.19814,46.74919 -13.99182,6.91637 -21.47447,8.45144 -38.63703,7.92642 -9.49326,-0.29041 -11.46718,-0.55123 -18.99747,-2.51017 l -8.40344,-2.18608 -4.15508,3.91969 c -4.87351,4.59743 -7.28805,5.58745 -13.62442,5.58636 -5.20978,-8.9e-4 -7.71868,-0.99311 -12.39931,-4.90366 -3.24771,-2.71338 -1.51786,-3.47495 -20.33215,8.95122 -7.77405,5.13448 -14.62266,9.4903 -15.21913,9.67962 -1.20738,0.3832 -7.06672,-2.62504 -6.5961,-3.38651 0.16427,-0.26581 8.43824,-5.45818 18.38661,-11.53862 l 18.08792,-11.05534 V 323.184 c 0,-2.12027 0.42065,-5.46999 0.93477,-7.44384 1.70975,-6.56414 2.48919,-5.4898 -16.20438,-22.33534 -5.14218,-4.63384 -9.73351,-8.88795 -10.20295,-9.45359 -1.11779,-1.34686 -2.42717,-1.29739 -5.86067,0.22141 -3.85752,1.70636 -9.487,2.2141 -13.60236,1.22684 -2.86532,-0.68737 -3.95578,-1.42953 -7.71122,-5.24814 -2.40568,-2.44616 -4.81501,-5.11451 -5.35406,-5.92967 l -0.98008,-1.48212 -10.23712,2.94555 c -5.63041,1.62005 -13.38156,3.92362 -17.22477,5.11904 l -6.98766,2.17349 -0.38565,2.3095 c -0.79503,4.7612 -2.16906,8.65143 -4.30907,12.20005 -1.21353,2.01233 -2.20643,4.43703 -2.20643,5.38822 0,2.09503 8.72363,15.34391 16.40589,24.91621 14.71315,18.33295 34.31103,32.67287 53.07845,38.83789 5.11258,1.67947 20.47119,5.55682 24.92712,6.29297 l 2.49271,0.41182 1.50294,-3.29703 c 1.86959,-4.10137 8.00667,-10.32065 12.20698,-12.37046 2.59945,-1.26857 4.04548,-1.5206 8.72449,-1.5206 4.771,0 6.13677,0.2476 9.14523,1.65791 4.68404,2.19579 8.83465,6.11687 10.86262,10.2619 2.38889,4.88272 2.78475,12.82388 0.88906,17.83486 -1.55838,4.11934 -6.34277,9.71866 -10.23004,11.97252 -4.00981,2.32492 -12.01724,3.45215 -15.96388,2.24728 z m 10.05241,-12.25329 c 5.59423,-2.829 7.50262,-10.71705 3.81818,-15.78191 -1.91032,-2.62605 -6.24532,-4.54949 -9.35455,-4.15062 -6.24006,0.80053 -10.12464,4.62392 -10.12464,9.96517 0,8.53527 8.18798,13.74646 15.66101,9.96736 z m -1.2252,-62.34985 c 1.65384,-1.49671 2.0606,-4.69784 0.88565,-6.96994 -1.86634,-3.6091 -8.09328,-3.21494 -10.08595,0.63845 -2.68275,5.18786 4.78515,10.32714 9.2003,6.33149 z M 244.93269,292.73785 c 2.10687,-1.06244 3.14114,-2.12942 4.26887,-4.40387 1.31721,-2.65659 1.40588,-3.27687 0.77127,-5.39501 -0.88687,-2.96012 -4.2921,-6.04669 -7.2918,-6.60944 -2.8284,-0.53061 -6.81442,0.62267 -8.71257,2.52081 -1.83141,1.83141 -2.43789,5.03737 -1.56569,8.27648 0.91116,3.38377 2.34184,5.01135 5.33962,6.07447 3.37337,1.19631 3.97591,1.15748 7.1903,-0.46344 z m 180.89462,-18.63284 c 1.89241,-0.99609 2.27543,-1.73733 2.28641,-4.42475 0.0234,-5.74147 -7.34687,-7.34365 -9.848,-2.14078 -0.9707,2.01925 -0.0741,5.63073 1.64717,6.63506 1.42446,0.83113 4.26679,0.79771 5.91442,-0.0695 z m -105.9514,-2.53186 c 0.79682,-0.94281 1.06678,-2.13183 0.93476,-4.11717 -0.24439,-3.6755 -2.38512,-5.46714 -5.77296,-4.83157 -3.2637,0.61227 -4.8779,2.42477 -4.37757,4.91533 0.75745,3.77048 1.05556,4.27947 3.01365,5.14546 2.40576,1.06398 4.7126,0.65036 6.20212,-1.11205 z"
       id="path59"
       transform="matrix(0.26458333,0,0,0.26458333,1.1436092,0.94241819)" /><path
       style="fill:#ffffff;stroke:#f9f9f9;stroke-width:0.623178"
       d="m 308.67795,331.24029 c -1.08694,-0.47 -2.27877,-1.41979 -2.64851,-2.11065 -0.97551,-1.82275 -0.82378,-5.82978 0.28044,-7.40628 1.05874,-1.51156 4.42463,-2.38264 6.85228,-1.77334 1.79066,0.44943 4.02959,3.69544 4.03309,5.8472 0.004,2.17083 -1.6805,4.97219 -3.26252,5.42715 -2.94473,0.84685 -3.3304,0.84802 -5.25478,0.0159 z"
       id="path60"
       transform="matrix(0.26458333,0,0,0.26458333,1.1436092,0.94241819)" /><path
       style="fill:#ffffff;stroke:#f9f9f9;stroke-width:0.623178"
       d="m 279.00716,318.1751 c -1.96504,-2.55282 -3.73113,-5.05408 -3.92464,-5.55836 -0.21099,-0.54985 1.26225,-2.9581 3.68039,-6.01618 2.21772,-2.80462 5.25277,-7.3696 6.74456,-10.1444 1.49178,-2.7748 3.617,-6.00553 4.72271,-7.17942 1.68052,-1.78414 2.294,-2.06421 3.73907,-1.70698 2.2997,0.56851 4.97087,3.18577 5.79263,5.67572 1.35435,4.10371 -3.12034,13.34113 -11.44428,23.62523 -2.45894,3.03798 -4.75584,5.61862 -5.10422,5.73475 -0.34837,0.11612 -2.24117,-1.87754 -4.20622,-4.43036 z"
       id="path61"
       transform="matrix(0.26458333,0,0,0.26458333,1.1436092,0.94241819)" /><path
       style="fill:#ffffff;stroke:#f9f9f9;stroke-width:0.623178"
       d="m 366.73426,398.29292 c -4.79747,-2.43301 -9.74589,-7.28642 -11.8833,-11.65512 -0.92297,-1.8865 -2.16,-3.68788 -2.74895,-4.00308 -0.58895,-0.31519 -5.56165,-1.00185 -11.05045,-1.5259 -16.44323,-1.56994 -23.73237,-3.56285 -35.69436,-9.75914 -20.48809,-10.61279 -39.78726,-29.40728 -54.85356,-53.41912 -8.14651,-12.98348 -7.3753,-12.09868 -11.31277,-12.979 -10.97961,-2.45478 -17.26863,-9.14239 -17.83742,-18.96792 -0.4103,-7.08767 0.88309,-10.41469 6.06747,-15.60755 3.70472,-3.71079 4.50633,-4.21255 7.83334,-4.90323 5.02431,-1.04304 11.16271,-0.52948 14.59032,1.22068 1.51499,0.77357 4.83137,3.51046 7.36973,6.08199 4.27003,4.32583 4.76313,4.64599 6.59315,4.28085 3.0991,-0.61836 23.95081,-7.05756 28.59114,-8.82921 4.1632,-1.58949 4.18679,-1.61213 6.323,-6.06926 3.80721,-7.94364 8.54729,-11.18633 16.38784,-11.21094 7.90854,-0.0248 14.24459,4.3824 17.03943,11.85226 1.50587,4.02483 1.54762,5.68193 0.28076,11.14453 l -0.97058,4.18505 2.68432,2.77024 c 3.41469,3.524 21.70529,20.29188 25.49884,23.37603 l 2.87283,2.3356 2.94309,-1.30187 c 1.63804,-0.72459 4.94072,-1.45295 7.44804,-1.64258 3.73675,-0.28261 5.01669,-0.11435 7.50583,0.98672 1.65049,0.73008 3.31998,1.32743 3.70998,1.32743 0.64388,0 8.3155,-7.60093 20.12718,-19.9417 l 4.47345,-4.67383 -1.50079,-4.36225 c -2.62035,-7.61639 -1.85436,-13.31134 2.44783,-18.19889 6.32145,-7.18153 17.44162,-7.75454 24.4855,-1.26171 3.75329,3.45966 5.30571,6.69594 5.67416,11.82872 0.37582,5.23569 -0.83656,8.73672 -4.23987,12.2436 -4.94431,5.09477 -11.02483,6.63997 -18.87785,4.79729 -2.33482,-0.54786 -4.63002,-0.99611 -5.10044,-0.99611 -0.47043,0 -5.88335,5.33 -12.02872,11.84443 l -11.17339,11.84443 2.27208,6.01943 c 3.20526,8.4917 3.23574,8.50905 15.48983,8.81796 12.05833,0.30397 25.14136,-0.69001 31.1303,-2.36514 11.40543,-3.19012 22.78708,-9.69267 30.92069,-17.66556 7.73265,-7.57985 12.07674,-14.32304 18.19258,-28.23978 2.23882,-5.09448 4.57135,-9.76558 5.1834,-10.38023 1.29346,-1.29893 3.52153,-0.74744 5.67321,1.40424 1.86763,1.86764 1.74063,8.06609 -0.28916,14.11274 -6.36185,18.95162 -22.25468,36.92253 -40.46274,45.75348 -13.15227,6.37888 -20.61614,7.8198 -37.74364,7.2865 -9.46297,-0.29465 -11.89486,-0.59382 -18.38375,-2.26153 -4.11298,-1.05709 -7.92001,-1.92273 -8.46007,-1.92365 -0.54006,-9.3e-4 -1.66178,0.73692 -2.49271,1.63965 -8.67574,9.42543 -18.59394,10.10816 -28.7697,1.98041 -1.64414,-1.31323 -1.79011,-1.32589 -3.86751,-0.33525 -1.18737,0.56622 -8.13032,4.92347 -15.42876,9.68278 -17.0898,11.14425 -15.52044,10.39615 -18.55805,8.84648 -1.37586,-0.70191 -2.49529,-1.48083 -2.48762,-1.73092 0.008,-0.2501 8.07005,-5.3944 17.91637,-11.43177 l 17.90241,-10.97706 0.40261,-5.64764 c 0.22142,-3.10621 0.58957,-5.95017 0.81808,-6.31992 0.82783,-1.33946 0.45605,-5.51268 -0.64015,-7.1857 -1.82048,-2.7784 -27.70643,-26.01084 -28.59975,-25.66804 -7.21685,2.76937 -14.18117,3.56268 -18.20076,2.07328 -2.17688,-0.80661 -5.06248,-3.33154 -10.00983,-8.7587 l -3.25967,-3.57581 -15.74725,4.66151 c -8.66099,2.56383 -16.456,4.93349 -17.32223,5.26591 -1.31088,0.50305 -1.70928,1.26893 -2.37593,4.56744 -0.44053,2.17968 -2.05999,6.67622 -3.59879,9.99233 l -2.79784,6.02929 1.83892,3.62997 c 2.06236,4.07103 9.74352,15.24036 14.7103,21.39055 14.07764,17.43183 33.03451,31.7877 50.29255,38.0861 4.82292,1.76015 23.56809,6.77338 28.64571,7.66105 2.22483,0.38893 2.28061,0.34693 3.88014,-2.92239 1.88946,-3.86191 7.54031,-9.79801 11.59822,-12.18367 2.56283,-1.5067 3.41602,-1.66191 9.06101,-1.64838 5.59138,0.0134 6.57359,0.19343 9.55799,1.75187 4.24148,2.21487 8.548,6.51685 10.27365,10.26279 1.09591,2.37897 1.34899,4.0929 1.35232,9.15845 0.005,7.57619 -1.17454,10.46513 -6.47829,15.867 -4.08798,4.16361 -7.41523,5.56072 -14.39408,6.04406 -4.30826,0.29839 -4.96677,0.17515 -8.41887,-1.57557 z m 12.65015,-9.98674 c 2.85586,-1.45757 4.16733,-2.87322 5.40421,-5.8335 2.99851,-7.17644 -2.00218,-14.76023 -9.75072,-14.78743 -3.67145,-0.0129 -5.39669,0.64213 -8.21975,3.12082 -3.93479,3.45478 -4.3322,9.65608 -0.92544,14.44044 2.80493,3.93915 9.01094,5.34656 13.4917,3.05967 z m -0.77548,-62.66737 c 2.1536,-2.15359 2.15201,-6.39291 -0.003,-8.41758 -3.57559,-3.35909 -10.30762,-0.62155 -10.30762,4.19153 0,4.9586 6.7937,7.74311 10.31076,4.22605 z M 243.5183,293.79866 c 6.13235,-2.56226 8.66003,-8.35313 5.72147,-13.10782 -2.8291,-4.57758 -8.4659,-6.03592 -13.46754,-3.48427 -2.87797,1.46823 -3.95003,3.45717 -3.95003,7.32832 0,5.44997 2.60711,8.33082 9.21189,10.17909 0.0967,0.0271 1.21459,-0.38484 2.48421,-0.91532 z m 183.88984,-20.69049 c 2.97427,-3.28782 0.19867,-8.88072 -4.40726,-8.88072 -4.47913,0 -6.84971,4.40704 -4.67851,8.69758 1.46945,2.90378 6.53226,3.00583 9.08577,0.18314 z m -108.20973,-0.38262 c 3.11886,-2.36955 2.56407,-8.57218 -0.89688,-10.0274 -2.19178,-0.92157 -4.92393,-0.40096 -6.79842,1.29543 -2.14721,1.9432 -1.16242,7.53489 1.55911,8.85268 1.86028,0.90076 4.86962,0.84156 6.13619,-0.12071 z"
       id="path62"
       transform="matrix(0.26458333,0,0,0.26458333,1.1436092,0.94241819)" /><path
       style="fill:#ffffff;stroke:#f9f9f9;stroke-width:0.623178"
       d="m 329.70637,315.55559 c -1.64463,-2.0908 -1.62316,-2.44533 0.26219,-4.33068 1.73946,-1.73947 3.1769,-1.41162 4.95763,1.13073 1.22818,1.75347 1.22046,1.84187 -0.3039,3.47808 -1.69063,1.81467 -3.34327,1.72117 -4.91592,-0.27813 z"
       id="path63"
       transform="matrix(0.26458333,0,0,0.26458333,1.1436092,0.94241819)" /><path
       style="fill:#ffffff;stroke:#f9f9f9;stroke-width:0.623178"
       d="m 366.97971,397.9007 c -4.26664,-2.22253 -9.30709,-7.13916 -11.7136,-11.42587 -1.16955,-2.0833 -2.57135,-3.95855 -3.1151,-4.16721 -0.54376,-0.20865 -6.54132,-1.07558 -13.32791,-1.9265 -6.78659,-0.85092 -14.77921,-2.2401 -17.76136,-3.08708 -7.11269,-2.02011 -21.4394,-9.19616 -28.44873,-14.24956 -16.23242,-11.70285 -28.44717,-25.02459 -41.81724,-45.60704 -3.31403,-5.10177 -6.60134,-9.90402 -7.30513,-10.67167 -0.73025,-0.79652 -3.4428,-2.06181 -6.31823,-2.9472 -6.62594,-2.04022 -10.63107,-5.07983 -13.12887,-9.96388 -1.70487,-3.33362 -1.8806,-4.23454 -1.8806,-9.64148 0,-7.07271 0.63574,-8.56924 5.85936,-13.79285 4.16244,-4.16244 7.53337,-5.27262 14.61482,-4.81322 5.52112,0.35817 7.21297,1.22563 13.77206,7.06134 3.52839,3.13926 5.72518,4.64571 6.77462,4.64571 3.11214,0 29.71421,-8.39055 32.60284,-10.28324 0.80526,-0.52763 2.30447,-2.62406 3.33156,-4.65874 3.98075,-7.8858 8.12948,-10.68157 15.89594,-10.71203 8.1254,-0.0319 13.75488,3.77869 16.52918,11.1885 1.44838,3.86842 1.51703,6.54937 0.29843,11.65392 l -0.89088,3.73178 2.00365,2.09186 c 2.68657,2.80488 20.30657,19.01769 25.35445,23.32958 l 4.0323,3.44438 3.13424,-1.23943 c 4.85687,-1.92063 11.12925,-2.1658 15.22619,-0.59516 l 3.36746,1.29098 2.28472,-1.80953 c 1.25659,-0.99524 6.91181,-6.66339 12.56714,-12.59587 l 10.28242,-10.78634 -1.4143,-4.36225 c -1.99861,-6.16448 -1.92038,-10.53795 0.26326,-14.71792 5.57531,-10.67236 20.51322,-11.69937 27.96991,-1.92299 2.38683,3.12934 3.30992,6.07708 3.31467,10.58494 0.004,4.12929 -1.27746,7.25262 -4.2334,10.31523 -4.7187,4.88898 -10.81512,6.34908 -19.07635,4.5688 -4.13631,-0.89137 -4.37467,-0.87745 -6.03841,0.3526 -1.69241,1.25125 -16.94067,17.06701 -20.27462,21.02919 l -1.68,1.99657 1.1259,3.21531 c 2.50265,7.14702 4.10646,9.83774 6.47726,10.86692 2.85515,1.23944 23.97478,1.36149 33.42066,0.19313 14.81999,-1.83307 28.6569,-8.84224 40.40007,-20.46488 6.47941,-6.41291 10.78135,-13.01673 16.5611,-25.42262 4.6452,-9.97065 6.27487,-12.74625 7.48384,-12.74625 0.3198,0 1.44427,0.72601 2.49881,1.61334 1.76774,1.48745 1.91735,1.91998 1.91735,5.54296 0,10.92342 -9.0605,27.45949 -21.8407,39.86084 -9.72431,9.43605 -21.91726,16.50921 -34.03298,19.74262 -9.71917,2.59382 -30.70776,2.26916 -42.57178,-0.65852 -2.57977,-0.63662 -5.45473,-1.33127 -6.3888,-1.54369 -1.42524,-0.32412 -2.24918,0.11265 -5.1243,2.71638 -8.29452,7.51155 -15.91427,8.17377 -25.04508,2.17663 l -4.12923,-2.71209 -2.55635,1.30415 c -1.40599,0.71729 -8.36925,5.05374 -15.4739,9.63656 -7.10465,4.58281 -13.56682,8.57924 -14.36036,8.88094 -1.02197,0.38856 -2.0486,0.23529 -3.51979,-0.5255 l -2.077,-1.07406 4.8985,-3.12251 c 2.69416,-1.71739 10.68496,-6.68477 17.7573,-11.03864 13.88517,-8.54796 13.62625,-8.28489 13.62625,-13.84496 0,-1.15041 0.32585,-3.99188 0.72411,-6.31437 1.03126,-6.01379 0.31006,-7.19798 -10.28007,-16.87964 -10.2968,-9.41349 -18.3508,-16.31146 -19.04512,-16.31146 -0.2689,0 -2.68186,0.56086 -5.36212,1.24636 -6.02931,1.54204 -10.4584,1.56676 -13.70991,0.0765 -1.37441,-0.62992 -4.79748,-3.55095 -7.63005,-6.51101 l -5.13733,-5.36855 -16.62456,4.9788 c -9.14351,2.73834 -16.96715,5.26313 -17.38588,5.61064 -0.41873,0.34751 -1.50589,3.01993 -2.41592,5.93871 -0.91002,2.91878 -2.6279,7.44264 -3.81749,10.05304 l -2.1629,4.74617 2.52655,4.41514 c 3.7606,6.57163 12.82323,19.01713 18.86062,25.90084 6.35648,7.24756 17.20242,16.72101 25.3815,22.16964 7.50008,4.9963 18.60961,10.33691 25.85444,12.42885 11.11011,3.20802 22.86349,5.99282 24.49408,5.80352 1.2229,-0.14198 2.0543,-0.90401 3.1405,-2.87849 2.06486,-3.75352 7.8397,-9.82614 11.25182,-11.83206 2.60749,-1.53289 3.42966,-1.68348 9.0983,-1.66647 7.293,0.0219 9.88914,1.03758 14.85081,5.81012 4.83585,4.6515 5.66174,6.74824 5.68173,14.42446 0.0144,5.53436 -0.19711,6.97581 -1.37164,9.34767 -2.74412,5.54147 -8.44502,10.36225 -13.72289,11.60431 -5.47372,1.28815 -9.93786,1.05416 -13.29984,-0.69712 z m 13.15884,-9.59977 c 4.21539,-2.13414 6.82823,-7.99528 5.5991,-12.55994 -2.10071,-7.80141 -11.33051,-11.00156 -17.93396,-6.21805 -4.44164,3.21751 -5.72648,8.91618 -3.1911,14.15358 2.80209,5.78835 9.36554,7.74327 15.52596,4.62441 z m -2.86365,-61.21885 c 3.71885,-1.69442 4.38929,-7.96677 1.12674,-10.54145 -3.37232,-2.66132 -9.49273,-0.42649 -10.42225,3.80561 -0.52655,2.39735 1.17943,5.46707 3.63079,6.53324 2.45649,1.06841 3.66929,1.11178 5.66472,0.2026 z M 246.77847,292.37719 c 0.85687,-0.60845 2.22769,-2.44247 3.04627,-4.0756 1.32302,-2.63953 1.40785,-3.23792 0.76376,-5.38769 -1.5892,-5.30427 -7.06953,-8.35556 -12.4327,-6.92216 -5.45497,1.45793 -7.88075,5.6893 -6.41129,11.18343 0.97337,3.63933 2.09578,4.90448 5.9488,6.70534 2.85494,1.33437 3.22087,1.37017 5.29701,0.51817 1.22661,-0.50337 2.93128,-1.41304 3.78815,-2.02149 z m 179.51711,-17.99116 c 2.45848,-1.45225 3.29772,-4.05466 2.17449,-6.74292 -2.76337,-6.61367 -12.59669,-3.81867 -11.27888,3.20588 0.79179,4.22058 5.10835,5.89756 9.10439,3.53704 z m -106.1379,-2.42706 c 2.10822,-2.35945 1.92352,-6.05967 -0.41945,-8.40263 -1.15641,-1.15641 -2.4649,-1.82075 -3.58328,-1.81927 -2.63199,0.003 -5.62513,2.08895 -6.09978,4.25004 -0.43575,1.98392 0.73146,5.53463 2.21625,6.74198 2.29406,1.8654 5.84082,1.51905 7.88626,-0.77012 z"
       id="path64"
       transform="matrix(0.26458333,0,0,0.26458333,1.1436092,0.94241819)" /><path
       style="fill:#ffffff;stroke:#f9f9f9;stroke-width:0.623178"
       d="m 353.01624,276.44541 c -2.08776,-3.18633 0.79534,-7.04674 3.79493,-5.08133 1.67424,1.097 2.11967,4.47415 0.76834,5.82548 -1.23326,1.23325 -3.511,0.86182 -4.56327,-0.74415 z"
       id="path65"
       transform="matrix(0.26458333,0,0,0.26458333,1.1436092,0.94241819)" /><path
       style="fill:#ffffff;stroke:#f9f9f9;stroke-width:0.623178"
       d="m 378.39736,275.89285 c -1.69682,-1.80617 -1.73915,-3.04109 -0.15345,-4.47612 1.51748,-1.37331 4.05534,-0.87277 5.05612,0.99722 0.5717,1.06822 0.47439,1.62565 -0.51544,2.95273 -1.61397,2.16389 -2.72365,2.29698 -4.38723,0.52617 z"
       id="path66"
       transform="matrix(0.26458333,0,0,0.26458333,1.1436092,0.94241819)" /><path
       style="fill:#ffffff;stroke:#f9f9f9;stroke-width:0.623178"
       d="m 367.34297,397.40014 c -3.86308,-1.84681 -8.65095,-6.4289 -11.70243,-11.19948 -1.2655,-1.97843 -2.93137,-3.86142 -3.70192,-4.18442 -0.77056,-0.32301 -6.63167,-1.30272 -13.02468,-2.17716 -13.65464,-1.86768 -19.2133,-3.19364 -26.22687,-6.25615 -16.29316,-7.11448 -31.864,-18.77698 -44.00391,-32.95878 -6.53069,-7.62913 -10.23162,-12.59857 -18.7888,-25.22874 l -6.54337,-9.65783 -5.7372,-2.28183 c -8.22187,-3.27003 -10.70637,-5.16294 -13.45405,-10.25052 -1.12307,-2.07947 -1.3466,-3.52582 -1.34833,-8.72449 -0.002,-4.61591 0.26393,-6.71654 1.02382,-8.10132 1.97301,-3.59551 5.55423,-7.10422 8.94355,-8.76246 3.10557,-1.51941 3.91394,-1.64689 8.86424,-1.39796 6.22839,0.31321 7.5719,0.88506 12.92518,5.50144 2.05648,1.77341 4.75655,3.91239 6.00015,4.75328 l 2.26109,1.52891 5.21705,-1.32191 c 6.36249,-1.61214 25.20935,-7.8026 27.28738,-8.96285 0.82801,-0.4623 2.93901,-3.18159 4.69113,-6.04286 2.09027,-3.4135 4.10845,-5.85116 5.86938,-7.08933 2.41522,-1.69823 3.24171,-1.90889 8.26095,-2.10561 5.0306,-0.19716 5.91158,-0.055 8.98875,1.45052 3.86472,1.89084 6.06674,4.43435 7.80929,9.02037 1.40345,3.69356 1.48748,7.0564 0.30045,12.0232 l -0.85564,3.58017 8.20018,7.7106 c 11.97579,11.26081 22.96483,20.96298 23.733,20.95376 0.36839,-0.004 2.44747,-0.56528 4.62018,-1.24635 4.79498,-1.50307 9.94417,-1.51738 14.12178,-0.0392 l 3.11589,1.10247 2.54608,-2.07667 c 1.40033,-1.14217 7.1087,-6.85189 12.68526,-12.68828 l 10.1392,-10.61161 -1.31227,-4.86335 c -2.34342,-8.68482 -1.42391,-13.6595 3.38522,-18.31459 5.90254,-5.71348 16.1093,-5.60294 22.12971,0.23967 3.50441,3.40092 4.92434,6.76239 4.94119,11.69755 0.0169,4.94622 -1.55876,8.50379 -5.11421,11.54712 -4.71507,4.03592 -8.65315,4.64205 -19.97028,3.07372 l -2.97535,-0.41232 -7.50869,7.71669 c -4.12977,4.24418 -9.34103,9.74511 -11.58056,12.22429 l -4.07189,4.5076 1.6833,4.61529 c 3.81075,10.44845 4.09535,10.60994 19.20566,10.89761 19.43991,0.37011 28.95406,-1.15946 40.16078,-6.45654 8.15223,-3.85331 13.88565,-7.86637 20.47671,-14.33249 6.86787,-6.73768 10.80103,-12.63404 17.66682,-26.48506 2.80328,-5.65534 5.49526,-10.69001 5.98217,-11.18815 0.77316,-0.791 1.10324,-0.74345 2.60583,0.37536 1.51313,1.12666 1.74319,1.75421 1.9085,5.20608 0.49363,10.30755 -8.32454,26.78579 -21.00871,39.25832 -11.70964,11.51425 -26.73158,19.41762 -40.38064,21.24513 -8.0112,1.07264 -26.25945,0.36266 -33.83326,-1.31635 -10.41897,-2.30972 -10.47041,-2.30738 -13.98972,0.63932 -9.17363,7.68101 -16.07902,8.19012 -25.56029,1.88445 l -3.71727,-2.47222 -2.82609,1.6456 c -1.55435,0.90509 -8.73747,5.38328 -15.96248,9.95154 -7.62028,4.81817 -13.76974,8.30191 -14.64468,8.29638 -1.52181,-0.01 -3.59155,-0.96568 -3.0482,-1.40802 0.16145,-0.13142 6.32279,-3.98121 13.69187,-8.55507 18.44446,-11.44816 20.39722,-12.85141 21.12961,-15.18366 0.33712,-1.07358 0.80551,-5.11929 1.04085,-8.99048 l 0.42789,-7.03853 -2.08166,-2.59036 c -3.09115,-3.84651 -19.81126,-19.30202 -25.8137,-23.86131 l -1.86954,-1.42005 -5.29701,1.17366 c -6.39376,1.41666 -10.52545,1.50908 -13.41884,0.30014 -1.18888,-0.49674 -4.7304,-3.39497 -7.87005,-6.44051 l -5.70844,-5.53733 -16.24054,4.93463 c -8.9323,2.71405 -16.69633,5.17856 -17.2534,5.4767 -0.55708,0.29813 -2.19637,3.79309 -3.64289,7.76658 -1.44651,3.97348 -3.29586,8.66165 -4.10965,10.41815 l -1.47964,3.19363 1.64132,2.85343 c 5.6171,9.76531 17.25957,25.19983 24.38028,32.32113 13.33148,13.3326 26.68945,22.38422 41.83232,28.34642 4.5416,1.78816 18.84971,5.67843 25.65151,6.97446 l 4.46318,0.85042 1.61266,-1.69596 c 0.88697,-0.93278 2.83423,-3.3095 4.32724,-5.28161 3.40894,-4.50283 8.11243,-8.25638 11.50151,-9.1786 3.14625,-0.85614 11.33675,-0.34931 14.2616,0.88252 2.9439,1.23985 8.43097,6.38523 10.01311,9.38958 1.14174,2.16807 1.35295,3.61884 1.37112,9.41782 0.0198,6.3325 -0.10578,7.07143 -1.64824,9.6951 -2.17557,3.7006 -6.71329,7.84472 -10.37278,9.47305 -1.82627,0.81261 -4.65819,1.38561 -7.58761,1.53523 -3.961,0.2023 -5.15217,0.01 -7.81016,-1.26067 z m 13.54929,-9.12372 c 9.65571,-6.6162 5.49867,-21.2246 -6.03979,-21.2246 -10.34108,0 -15.63921,11.40362 -8.87658,19.10582 1.09314,1.24502 2.83402,2.64792 3.86864,3.11757 2.81871,1.27951 8.46816,0.76876 11.04773,-0.99879 z m -1.84427,-62.42426 c 1.85858,-1.97305 2.33629,-5.70374 1.0404,-8.12513 -1.10183,-2.0588 -4.5476,-3.17458 -7.41735,-2.40184 -6.17987,1.66406 -6.79361,9.29298 -0.95808,11.90919 3.08044,1.38104 5.08855,1.00263 7.33503,-1.38222 z M 244.90104,293.83241 c 5.56706,-2.82104 7.79628,-9.03864 4.8227,-13.45114 -2.21577,-3.28797 -5.12379,-4.93661 -8.70764,-4.93661 -6.22483,0 -9.81128,3.30223 -9.81378,9.03608 -0.002,4.43942 1.55493,7.13845 5.29371,9.17732 3.85239,2.10081 4.57379,2.11577 8.40501,0.17435 z M 426.8769,274.28324 c 4.5932,-3.3817 2.00867,-10.67896 -3.78225,-10.67896 -3.58525,0 -6.1886,2.45541 -6.1886,5.83692 0,5.78499 5.23628,8.32783 9.97085,4.84204 z m -107.41534,-1.18936 c 1.53971,-1.24721 2.72144,-3.34733 2.72144,-4.83641 0,-2.01263 -2.05984,-5.34278 -3.89022,-6.2893 -3.57587,-1.84916 -8.57334,1.18844 -8.57334,5.21112 0,2.43909 1.39795,5.43605 2.96009,6.34591 1.69665,0.98821 5.31357,0.75818 6.78203,-0.43132 z"
       id="path67"
       transform="matrix(0.26458333,0,0,0.26458333,1.1436092,0.94241819)" /><path
       style="fill:#ffffff;stroke:#f9f9f9;stroke-width:0.623178"
       d="m 441.46873,303.84823 c -4.91495,-2.13997 -6.22892,-8.09673 -2.72397,-12.34884 3.53908,-4.29352 8.48428,-4.42251 12.19243,-0.31803 2.11529,2.34138 2.23721,2.70101 1.97746,5.83316 -0.30973,3.73496 -1.54078,5.54464 -4.67389,6.87074 -2.4868,1.05255 -4.29222,1.04268 -6.77203,-0.037 z m 5.39083,-4.74474 c 1.52861,-0.81808 1.68997,-4.6442 0.21966,-5.20841 -2.85807,-1.09674 -5.24605,0.044 -5.24605,2.50616 0,2.69332 2.51583,4.04587 5.02639,2.70225 z"
       id="path68"
       transform="matrix(0.26458333,0,0,0.26458333,1.1436092,0.94241819)" /><path
       style="fill:#ffffff;stroke:#f9f9f9;stroke-width:0.623178"
       d="m 367.82113,397.01944 c -3.35744,-1.57776 -8.88366,-6.77733 -12.14641,-11.42844 -2.91738,-4.1588 -2.883,-4.14557 -15.73114,-6.05057 -21.51776,-3.19044 -29.49818,-6.07008 -44.55723,-16.07792 -16.83801,-11.1901 -27.21984,-22.25577 -44.48021,-47.41008 -4.81451,-7.0164 -7.94335,-10.99214 -8.9526,-11.37586 -10.75439,-4.08881 -14.6623,-6.68948 -17.17354,-11.42883 -1.11653,-2.10718 -1.34369,-3.58738 -1.34541,-8.767 -0.002,-7.08505 0.60337,-8.72998 4.73685,-12.86346 3.55903,-3.55902 6.79398,-4.86762 12.06366,-4.87995 6.26102,-0.0147 8.48809,0.81678 13.8919,5.18631 2.64189,2.13625 5.68464,4.50106 6.76166,5.25514 l 1.95822,1.37106 8.63581,-2.44892 c 11.66915,-3.30911 23.3355,-7.38629 24.76058,-8.65338 0.64267,-0.57143 2.50516,-3.00197 4.13887,-5.40121 5.3429,-7.84649 7.31113,-9.04388 14.83068,-9.02239 7.78681,0.0222 12.58262,3.1365 15.07067,9.7864 1.43696,3.84062 1.56117,6.9885 0.48191,12.21371 l -0.76526,3.70507 5.17503,4.91113 c 7.69804,7.30547 19.17991,17.73839 23.24485,21.12127 l 3.58172,2.98074 4.55037,-1.18185 c 5.59844,-1.45407 9.6096,-1.50927 14.28781,-0.19663 l 3.58743,1.00658 2.68523,-2.20109 c 1.47688,-1.2106 7.25033,-6.9755 12.8299,-12.81089 l 10.14467,-10.60979 -1.26438,-4.82728 c -2.33481,-8.91405 -1.29604,-14.17504 3.63167,-18.39297 6.01812,-5.15129 14.59372,-4.92848 20.6728,0.53713 3.98914,3.58658 5.23618,6.85451 4.82241,12.6374 -0.3788,5.29419 -2.25385,8.52755 -6.51074,11.22719 -3.75169,2.37925 -7.27899,2.83659 -14.84445,1.92467 l -6.23178,-0.75116 -6.40929,6.73195 c -3.52511,3.70258 -8.78913,9.2948 -11.69783,12.42718 l -5.28853,5.69522 1.95582,5.40518 c 2.27023,6.2741 4.0567,8.67194 7.28293,9.77532 3.64004,1.24489 28.1997,1.05141 35.49553,-0.27964 14.32907,-2.61419 27.23866,-9.51044 38.05938,-20.33116 6.2175,-6.2175 10.19266,-12.19265 17.54297,-26.36922 3.15433,-6.08378 5.99194,-11.06141 6.3058,-11.06141 0.31387,0 1.13152,0.56086 1.81702,1.24635 2.56421,2.56422 1.24723,11.27146 -3.07936,20.35919 -9.68993,20.35312 -29.73521,37.29917 -50.82554,42.96735 -6.61145,1.77687 -30.30216,1.60246 -39.5718,-0.29133 -9.42158,-1.92484 -10.78493,-1.8227 -14.58712,1.0928 -9.2084,7.06098 -15.80456,7.41474 -24.94204,1.33767 -2.03304,-1.35211 -3.99605,-2.28162 -4.36225,-2.06556 -0.36619,0.21605 -6.1342,3.79466 -12.81778,7.95246 -6.68359,4.1578 -13.72847,8.45298 -15.65531,9.54486 -3.34113,1.89332 -6.15592,2.56868 -6.15592,1.47702 0,-0.27952 6.50014,-4.55607 14.44477,-9.50347 7.94462,-4.94738 15.62129,-10.11697 17.05926,-11.48796 2.83812,-2.70592 2.83708,-2.70195 3.75734,-14.34013 l 0.39476,-4.99245 -4.10674,-4.43566 c -4.17861,-4.51328 -17.542,-16.81753 -23.06262,-21.23474 l -3.04201,-2.43401 -5.0593,1.11347 c -6.31639,1.39013 -11.10165,1.43934 -13.83499,0.14229 -1.16,-0.55046 -4.60966,-3.35476 -7.6659,-6.23178 -3.05625,-2.87702 -5.84566,-5.23095 -6.19869,-5.23095 -0.93325,0 -31.37762,9.36934 -32.65248,10.04889 -1.44318,0.76928 -1.96507,1.81197 -6.3889,12.76451 -2.99271,7.40936 -3.66466,9.65671 -3.15425,10.54941 0.35672,0.6239 3.07753,4.80002 6.04624,9.28027 19.42103,29.30945 42.71647,48.04455 69.42283,55.83255 8.23313,2.40091 19.30605,4.95851 21.50101,4.96627 1.26441,0.004 2.51203,-1.13533 5.97012,-5.45416 2.54186,-3.17453 5.87166,-6.49288 7.95538,-7.92799 3.14004,-2.16263 4.10528,-2.49767 7.79661,-2.70625 9.00622,-0.5089 15.36871,2.57441 19.67176,9.53306 1.79104,2.89638 1.8765,3.34903 1.8765,9.939 0,6.40561 -0.12349,7.11449 -1.70935,9.81219 -2.0638,3.51074 -6.04124,7.08766 -9.74328,8.76216 -4.12042,1.86374 -11.49692,2.1299 -14.8863,0.53712 z m 9.99383,-7.19795 c 2.63999,-0.44566 6.26154,-3.31571 7.70423,-6.10558 2.25817,-4.36682 0.5279,-11.95176 -3.3412,-14.64676 -2.02737,-1.41215 -5.4195,-2.64196 -7.27364,-2.63703 -4.42432,0.0117 -9.7614,3.4324 -11.37284,7.28911 -2.742,6.56253 1.31368,14.82074 8.05396,16.39953 1.10534,0.25891 2.43036,0.38676 2.94448,0.28411 0.51412,-0.10265 1.99238,-0.36517 3.28501,-0.58338 z m 0.97934,-63.27422 c 3.4016,-3.4016 3.34505,-8.5278 -0.11737,-10.63904 -4.21656,-2.57109 -9.72005,-0.74223 -11.04177,3.66927 -0.91815,3.06449 0.0378,5.3558 3.09209,7.41187 2.99668,2.01725 5.75909,1.86586 8.06705,-0.4421 z M 247.79676,291.96578 c 3.38531,-3.25596 4.42632,-6.73768 3.02051,-10.10226 -1.3462,-3.2219 -3.11651,-4.95519 -6.30456,-6.17272 -5.04796,-1.92783 -10.54747,7.7e-4 -12.70375,4.45504 -2.21911,4.58407 -1.25962,9.06845 2.65777,12.42159 4.73503,4.05301 8.67535,3.87516 13.33003,-0.60165 z M 426.2662,275.12662 c 2.29789,-1.18829 3.10341,-2.69057 3.10341,-5.7878 0,-4.52904 -4.55232,-7.33655 -8.93013,-5.50738 -4.27977,1.7882 -5.30538,7.4052 -1.96251,10.74808 1.75297,1.75296 5.01436,1.98204 7.78923,0.5471 z M 320.41884,272.5233 c 2.98117,-2.82728 2.78302,-6.17992 -0.5732,-9.698 -3.15938,-3.31176 -9.4212,-1.35679 -10.43473,3.25779 -0.52712,2.39995 1.62002,7.30323 3.54894,8.1045 2.13633,0.88742 5.57815,0.11946 7.45899,-1.66429 z"
       id="path69"
       transform="matrix(0.26458333,0,0,0.26458333,1.1436092,0.94241819)" /><path
       style="fill:#ffffff;stroke:#f9f9f9;stroke-width:0.623178"
       d="m 450.75478,364.62372 c -6.16372,-2.86776 -6.28678,-11.85528 -0.20684,-15.1062 2.89094,-1.54578 5.61058,-1.465 8.11737,0.24111 3.27746,2.23062 4.67557,4.54876 4.60866,7.64141 -0.13868,6.40941 -6.44651,10.04908 -12.51919,7.22368 z m 6.30174,-5.40614 c 1.31288,-1.31288 1.23336,-2.50571 -0.26708,-4.00614 -3.12916,-3.12917 -7.05933,-0.13608 -4.9635,3.78003 0.79424,1.48405 3.84094,1.61575 5.23058,0.22611 z"
       id="path70"
       transform="matrix(0.26458333,0,0,0.26458333,1.1436092,0.94241819)" /><path
       style="fill:#ffffff;stroke:#f9f9f9;stroke-width:0.623178"
       d=""
       id="path71"
       transform="matrix(0.26458333,0,0,0.26458333,1.1436092,0.94241819)" /><path
       style="fill:#ffffff;stroke:#f9f9f9;stroke-width:0.623178"
       d="m 421.23436,376.18936 c -4.75315,-3.30187 -5.45334,-9.11775 -1.60348,-13.31867 1.6789,-1.832 2.56293,-2.26266 5.15614,-2.51183 4.88349,-0.46924 8.23404,1.7278 9.44737,6.19489 0.85808,3.15915 -0.0185,6.53341 -2.28637,8.8013 -1.50179,1.5018 -2.52155,1.91908 -5.18407,2.1213 -2.76032,0.20966 -3.6849,-0.006 -5.52959,-1.28699 z m 6.84367,-5.17093 c 1.85032,-2.3523 1.70028,-4.46347 -0.35388,-4.97903 -2.25898,-0.56697 -4.85867,0.45433 -5.08141,1.99625 -0.2111,1.46132 2.04576,4.62477 3.29939,4.62477 0.46437,0 1.42552,-0.73889 2.1359,-1.64199 z"
       id="path72"
       transform="matrix(0.26458333,0,0,0.26458333,1.1436092,0.94241819)" /><path
       style="fill:#ffffff;stroke:#f9f9f9;stroke-width:0.623178"
       d="m 421.48408,375.7426 c -4.03782,-2.58679 -4.93916,-7.79882 -2.05029,-11.85587 3.20973,-4.50764 10.92704,-4.03883 13.43773,0.81631 2.06318,3.98975 0.60848,9.74799 -2.91284,11.53007 -2.30353,1.16577 -6.24537,0.93762 -8.4746,-0.49051 z m 7.74713,-5.98647 c 1.03564,-2.17176 1.02821,-2.22766 -0.45556,-3.42914 -1.54358,-1.24992 -3.81144,-1.15551 -5.47854,0.22805 -1.26829,1.05259 -0.89909,3.55268 0.77132,5.22309 1.28793,1.28794 1.77245,1.43675 2.83188,0.86976 0.70295,-0.37621 1.75186,-1.6775 2.3309,-2.89176 z"
       id="path73"
       transform="matrix(0.26458333,0,0,0.26458333,1.1436092,0.94241819)" /><path
       style="fill:#ffffff;stroke:#f9f9f9;stroke-width:0.623178"
       d="m 451.43958,364.29649 c -3.0632,-1.33371 -4.62098,-3.79757 -4.62098,-7.30871 0,-2.56861 0.31794,-3.38794 2.04673,-5.27438 6.63317,-7.23804 17.84833,1.95523 12.50338,10.24925 -1.03709,1.60929 -4.38313,3.233 -6.58458,3.19524 -0.78219,-0.0134 -2.28724,-0.40105 -3.34455,-0.8614 z m 5.71394,-5.03023 c 1.77104,-1.77104 1.38223,-3.29019 -1.29026,-5.04127 -3.79076,-2.4838 -6.93944,2.37946 -3.66232,5.65659 1.37427,1.37426 3.18838,1.14887 4.95258,-0.61532 z"
       id="path74"
       transform="matrix(0.26458333,0,0,0.26458333,1.1436092,0.94241819)" /><path
       style="fill:#ffffff;stroke:#f9f9f9;stroke-width:0.623178"
       d="m 509.47071,329.68625 c -1.58569,-1.75217 -1.05271,-3.11211 4.64898,-11.86222 8.05796,-12.36619 16.65364,-30.46177 22.20297,-46.74162 0.95831,-2.81135 1.57362,-3.62568 3.42297,-4.53005 2.65114,-1.29648 4.15138,-0.908 4.68367,1.21281 0.82045,3.26893 -8.03024,27.18267 -14.80471,40.00096 -10.50637,19.87957 -16.29894,26.17979 -20.15388,21.92012 z"
       id="path75"
       transform="matrix(0.26458333,0,0,0.26458333,1.1436092,0.94241819)" /><path
       style="fill:#ffffff;stroke:#f9f9f9;stroke-width:0.42664"
       d="m 487.38834,333.21028 c -1.23442,-0.49331 -2.72542,-2.47711 -2.72542,-3.6262 0,-1.24043 1.84413,-3.20456 3.00877,-3.20456 1.27172,0 3.81746,2.64289 3.81746,3.96315 0,2.05103 -2.23438,3.61349 -4.10081,2.86761 z"
       id="path76"
       transform="matrix(0.26458333,0,0,0.26458333,1.1436092,0.94241819)" /><path
       style="fill:#ffffff;stroke:#f9f9f9;stroke-width:0.331407"
       d="m 500.90734,310.74628 c -2.15574,-2.15574 -1.84068,-4.0528 0.916,-5.51534 l 1.55119,-0.82298 1.03979,0.98868 c 1.1742,1.11649 1.97484,2.48715 1.97484,3.38085 0,0.33128 -0.37821,1.15892 -0.84047,1.83919 -0.73892,1.08743 -1.00317,1.23685 -2.18728,1.23685 -1.08514,0 -1.56195,-0.21513 -2.45407,-1.10725 z"
       id="path77"
       transform="matrix(0.26458333,0,0,0.26458333,1.1436092,0.94241819)" /><path
       style="fill:#ffffff;stroke:#f9f9f9;stroke-width:0.331407"
       d="m 509.04041,252.87084 c -5.16637,-0.465 -10.84003,-4.27692 -13.85118,-9.30609 -0.87815,-1.46666 -1.72493,-4.64362 -1.72493,-6.47159 0,-2.18644 -0.36326,-3.44317 -1.12085,-3.87759 -0.53146,-0.30477 -9.31174,-0.45852 -36.16238,-0.63323 -19.50327,-0.1269 -38.21946,-0.36923 -41.59152,-0.5385 -3.74907,-0.1882 -15.07944,-0.19118 -29.16377,-0.008 -31.36012,0.40859 -140.25737,0.81534 -163.63508,0.6112 l -18.97614,-0.1657 1.11815,-1.65703 c 1.73325,-2.56857 4.10996,-5.05735 6.15736,-6.44772 l 1.86608,-1.26723 82.83721,-0.24779 82.8372,-0.24778 2.77514,-2.55533 2.77513,-2.55534 14.62729,-0.23594 c 8.04501,-0.12977 15.29839,-0.37982 16.11862,-0.55566 0.82023,-0.17584 2.22229,-0.62817 3.11569,-1.00517 2.96675,-1.25192 9.44291,-1.35313 71.61648,-1.1193 l 58.65895,0.22062 2.21048,1.15876 c 4.98263,2.61193 9.7931,8.33677 11.09238,13.20085 1.50203,5.62296 -0.837,12.73438 -5.8367,17.74545 -2.04127,2.04591 -3.16835,2.84457 -6.19677,4.39113 l -3.70168,1.89039 -16.67981,-0.05 c -9.17389,-0.0275 -17.7983,-0.15068 -19.16535,-0.27372 z m 7.17175,-9.97238 c 2.96265,-1.43419 4.56196,-4.40452 3.77971,-7.01987 -0.59647,-1.9942 -1.46006,-3.06945 -3.10465,-3.86558 -1.88361,-0.91185 -5.22592,-0.94703 -6.85776,-0.0722 -1.50228,0.80537 -2.75632,3.1967 -2.78818,5.31677 -0.0285,1.89429 1.36971,4.40742 3.10123,5.57429 1.45698,0.98187 3.92119,1.00982 5.86965,0.0666 z m 27.35189,-0.27404 c 1.94185,-1.23148 3.27095,-2.98486 3.48773,-4.60113 0.21385,-1.5944 -0.85798,-4.23723 -2.26527,-5.58551 -0.94749,-0.90774 -1.13086,-0.95033 -4.09184,-0.95033 -2.84917,0 -3.17163,0.067 -3.98659,0.82852 -1.38902,1.29785 -1.81796,2.43169 -1.81796,4.80539 0,2.39265 0.42344,3.49168 1.87599,4.86925 1.97992,1.87765 4.47044,2.10986 6.79794,0.63381 z"
       id="path78"
       transform="matrix(0.26458333,0,0,0.26458333,1.1436092,0.94241819)" /><path
       style="fill:#ffffff;stroke:#f9f9f9;stroke-width:0.331407"
       d="m 479.3943,200.7495 c -0.0716,-0.22784 -0.30993,-1.01079 -0.52968,-1.73989 -0.21975,-0.72909 -1.55497,-3.78632 -2.96715,-6.79383 -3.13988,-6.68698 -3.17143,-6.78428 -2.52164,-7.77598 1.31564,-2.00794 10.13796,-6.83934 15.65617,-8.57388 5.15451,-1.6202 12.61842,-1.90382 18.01997,-0.68472 11.53871,2.60421 24.69501,13.72949 28.16588,23.81772 0.36657,1.06546 0.66649,1.98841 0.66649,2.05101 0,0.0626 -12.68098,0.11383 -28.17996,0.11383 -22.25362,0 -28.20732,-0.0871 -28.31008,-0.41426 z"
       id="path79"
       transform="matrix(0.26458333,0,0,0.26458333,1.1436092,0.94241819)" /><path
       style="fill:#ffffff;stroke:#f9f9f9;stroke-width:0.331407"
       d="m 456.14582,200.85522 c -0.38394,-0.16374 -1.18814,-1.16795 -1.78712,-2.23158 -4.59749,-8.16396 -15.35973,-16.35956 -27.76377,-21.14251 -6.35382,-2.45 -8.94978,-2.80392 -22.81448,-3.11037 l -10.97481,-0.24257 -1.95005,-1.00832 c -8.82086,-4.56104 -10.87068,-5.7545 -10.5057,-6.1167 0.71727,-0.71178 6.56732,-3.41569 9.21847,-4.2608 15.94226,-5.08193 32.92721,-3.59231 47.09448,4.13027 6.45568,3.51899 13.98292,9.22463 18.02298,13.66139 2.61146,2.86788 5.88314,7.73695 8.85573,13.17954 2.51649,4.6075 3.35975,6.61661 2.94959,7.0276 -0.36798,0.36872 -9.51177,0.46952 -10.34532,0.11405 z"
       id="path80"
       transform="matrix(0.26458333,0,0,0.26458333,1.1436092,0.94241819)" /><path
       style="fill:#ffffff;stroke:#f9f9f9;stroke-width:0.331407"
       d="m 358.91326,210.92285 c 0,-0.10071 0.8531,-1.48019 1.89579,-3.06551 2.70943,-4.11949 8.61154,-9.9329 13.14513,-12.94756 8.77162,-5.8328 18.46355,-9.3224 28.70474,-10.33523 8.59244,-0.84977 15.88322,0.66407 24.85549,5.16095 4.32557,2.16796 6.91078,4.05974 10.75377,7.8693 2.94664,2.921 2.98497,2.97927 2.17108,3.30039 -1.18876,0.46903 -14.17211,0.0552 -17.23314,-0.54932 -7.25024,-1.43179 -8.95674,-1.58033 -16.07321,-1.39908 -7.89638,0.20111 -11.32105,0.76816 -16.67604,2.76121 -4.81035,1.79033 -11.05303,4.83572 -14.18636,6.92056 -1.53253,1.01971 -3.26762,1.99202 -3.85577,2.1607 -1.12925,0.32387 -13.50148,0.43712 -13.50148,0.12359 z"
       id="path81"
       transform="matrix(0.26458333,0,0,0.26458333,1.1436092,0.94241819)" /><path
       style="fill:#ffffff;stroke:#f9f9f9;stroke-width:0.331407"
       d="m 328.37329,192.41467 c -0.97498,-0.85884 -3.99161,-2.75142 -9.18537,-5.76271 l -3.43633,-1.99234 2.1107,-1.37369 c 3.13941,-2.0432 11.62681,-6.12361 15.08898,-7.2542 9.25824,-3.02332 18.43332,-4.22516 25.98418,-3.40364 6.47833,0.70482 15.69571,3.53528 19.67528,6.04185 l 1.6358,1.03033 -1.80151,0.73873 c -2.74673,1.12632 -8.44025,4.0348 -11.51576,5.88272 -2.1939,1.31819 -2.93607,1.60972 -3.64548,1.43193 -3.60607,-0.90374 -6.41441,-1.23228 -10.83295,-1.26731 -7.2201,-0.0572 -10.74837,0.81173 -18.6918,4.60357 -2.44273,1.16605 -4.45602,2.11538 -4.47399,2.10962 -0.018,-0.006 -0.42826,-0.35895 -0.91175,-0.78486 z"
       id="path82"
       transform="matrix(0.26458333,0,0,0.26458333,1.1436092,0.94241819)" /><path
       style="fill:#ffffff;stroke:#f9f9f9;stroke-width:0.331407"
       d="m 342.80006,203.77484 c -3.32654,-3.34203 -3.35071,-3.02465 0.37139,-4.87805 2.56116,-1.27532 5.53491,-1.80879 8.47046,-1.51952 1.26514,0.12466 2.30025,0.29642 2.30025,0.38168 0,0.0853 -1.85037,2.13338 -4.11193,4.55137 l -4.11193,4.39634 z"
       id="path83"
       transform="matrix(0.26458333,0,0,0.26458333,1.1436092,0.94241819)" /><path
       style="fill:#ffffff;stroke:#f9f9f9;stroke-width:0.331407"
       d="m 304.39689,208.49454 c -3.4632,-1.76085 -8.01176,-3.78285 -10.1079,-4.49335 -4.537,-1.53784 -4.99839,-1.94039 -9.44509,-8.24052 -1.64046,-2.32422 -3.85066,-5.45212 -4.91155,-6.95088 l -1.9289,-2.72503 1.50682,-0.10069 c 2.36807,-0.15824 8.98949,0.82139 13.83313,2.0466 10.37983,2.62559 20.66179,7.59213 29.61225,14.30372 3.97294,2.97915 8.3605,6.77505 9.41996,8.14968 l 0.67011,0.86946 -1.23386,0.20397 c -0.67862,0.11218 -5.70785,0.18926 -11.17606,0.17127 l -9.94219,-0.0327 z"
       id="path84"
       transform="matrix(0.26458333,0,0,0.26458333,1.1436092,0.94241819)" /><path
       style="fill:#ffffff;stroke:#f9f9f9;stroke-width:0.331407"
       d="m 307.37954,172.66802 c -8.71713,-2.55679 -16.8798,-3.46983 -28.8699,-3.22928 -6.20695,0.12453 -9.38911,0.34534 -12.86105,0.89242 l -4.61342,0.72695 -6.15729,-4.16428 c -7.62462,-5.15666 -7.90428,-5.3732 -7.48292,-5.79416 0.58208,-0.58151 6.40332,-2.68932 10.61546,-3.84374 18.22816,-4.99579 39.25858,-3.87967 57.14785,3.03291 4.29312,1.6589 12.3993,5.47989 12.71739,5.99456 0.31223,0.50521 -0.23388,0.80907 -4.5886,2.55306 -2.18729,0.87597 -5.53816,2.39351 -7.4464,3.37232 -1.90824,0.9788 -3.62327,1.76687 -3.81118,1.75126 -0.18791,-0.0156 -2.28038,-0.59702 -4.64994,-1.29202 z"
       id="path85"
       transform="matrix(0.26458333,0,0,0.26458333,1.1436092,0.94241819)" /><path
       style="fill:#ffffff;stroke:#f9f9f9;stroke-width:0.331407"
       d="m 343.03601,203.67978 c -1.56518,-1.5757 -2.37523,-2.63535 -2.25471,-2.94944 0.29593,-0.77118 4.32955,-2.51477 6.78618,-2.93342 1.31336,-0.22382 3.02382,-0.28051 4.15562,-0.13772 l 1.92352,0.24266 -3.77027,4.01403 c -2.07365,2.20772 -3.9114,4.06108 -4.08389,4.11858 -0.1725,0.0575 -1.4129,-1.00212 -2.75645,-2.35469 z"
       id="path86"
       transform="matrix(0.26458333,0,0,0.26458333,1.1436092,0.94241819)" /><path
       style="fill:#ffffff;stroke:#f9f9f9;stroke-width:0.331407"
       d="m 343.36353,203.5871 c -1.29042,-1.31012 -2.34622,-2.51301 -2.34622,-2.67307 0,-0.46966 2.30812,-1.61889 4.75745,-2.36877 2.23875,-0.68542 6.63551,-0.96601 6.9581,-0.44406 0.0855,0.13834 -1.45973,1.96521 -3.43383,4.05973 l -3.58927,3.80822 z"
       id="path87"
       transform="matrix(0.26458333,0,0,0.26458333,1.1436092,0.94241819)" /><path
       style="fill:#ffffff;stroke:#f9f9f9;stroke-width:0.331407"
       d=""
       id="path88"
       transform="matrix(0.26458333,0,0,0.26458333,1.1436092,0.94241819)" /><path
       style="fill:#ffffff;stroke:#f9f9f9;stroke-width:0.331407"
       d="m 310.63597,401.93592 c -1.16278,-0.30633 -2.62213,-2.26974 -2.30374,-3.09946 0.27727,-0.72255 1.69052,-1.2641 2.66232,-1.0202 0.9788,0.24567 1.8532,1.72275 1.8532,3.13052 0,1.12836 -0.62401,1.40743 -2.21178,0.98914 z"
       id="path89"
       transform="matrix(0.26458333,0,0,0.26458333,1.1436092,0.94241819)" /><path
       style="fill:#ffffff;stroke:#f9f9f9;stroke-width:0.331407"
       d="m 284.31341,406.38629 c -1.0123,-0.94426 -1.37249,-1.5627 -1.49591,-2.5684 -0.29779,-2.42674 1.99468,-4.80066 4.63841,-4.80321 1.07778,-10e-4 1.52113,0.23352 2.7341,1.44649 1.61621,1.61621 1.84378,2.75427 0.93409,4.67131 -0.96242,2.02816 -1.64927,2.49754 -3.65469,2.49754 -1.64864,0 -1.94996,-0.11875 -3.156,-1.24373 z"
       id="path90"
       transform="matrix(0.26458333,0,0,0.26458333,1.1436092,0.94241819)" /><path
       style="fill:#ffffff;stroke:#f9f9f9;stroke-width:0.331407"
       d="m 284.88197,406.60653 c -1.02059,-0.8028 -1.8608,-2.28599 -1.8608,-3.2848 0,-2.01746 2.18568,-3.97348 4.44245,-3.97564 1.08169,-10e-4 1.50323,0.21862 2.5684,1.33834 1.7198,1.80789 1.67207,3.94354 -0.13116,5.86851 -0.96038,1.02522 -3.74585,1.05497 -5.01889,0.0536 z"
       id="path91"
       transform="matrix(0.26458333,0,0,0.26458333,1.1436092,0.94241819)" /><path
       style="fill:#ffffff;stroke:#f9f9f9;stroke-width:0.331407"
       d="m 354.02561,276.87815 c -1.08031,-0.75667 -1.60676,-2.79938 -1.03103,-4.00058 1.39076,-2.90174 4.92446,-1.51398 4.92446,1.93394 0,2.28081 -2.04096,3.36416 -3.89343,2.06664 z"
       id="path92"
       transform="matrix(0.26458333,0,0,0.26458333,1.1436092,0.94241819)" /><path
       style="fill:#ffffff;stroke:#f9f9f9;stroke-width:0.331407"
       d="m 379.32135,276.22197 c -0.84401,-0.63861 -1.84442,-2.18176 -1.84714,-2.84925 -0.001,-0.29413 0.39098,-0.92794 0.87152,-1.40848 1.0777,-1.0777 2.65789,-1.15365 3.88699,-0.18684 1.2077,0.94997 1.15274,2.28577 -0.15534,3.77559 -1.11026,1.26452 -1.76039,1.42232 -2.75603,0.66898 z"
       id="path93"
       transform="matrix(0.26458333,0,0,0.26458333,1.1436092,0.94241819)" /><path
       style="fill:#ffffff;stroke:#f9f9f9;stroke-width:0.228977"
       d="m 442.72448,303.9129 c -3.70551,-1.32664 -5.42768,-3.54427 -5.4702,-7.04392 -0.0277,-2.27785 0.634,-3.85477 2.40179,-5.72394 2.37394,-2.51009 5.26245,-3.19513 8.03452,-1.90546 2.2414,1.04278 4.56277,3.55262 4.88767,5.28449 0.19196,1.02325 -0.254,4.53746 -0.71683,5.64857 -1.19964,2.88004 -6.02378,4.85482 -9.13695,3.74026 z m 4.03654,-4.42417 c 1.12037,-0.57157 1.63542,-1.6336 1.63919,-3.38 0.003,-1.4551 -0.52924,-2.31303 -1.68708,-2.71873 -1.8849,-0.66046 -3.77106,-0.14231 -4.74566,1.30369 -0.43774,0.64947 -0.52244,1.02248 -0.44669,1.96729 0.21793,2.71831 2.76287,4.09161 5.24024,2.82775 z"
       id="path94"
       transform="matrix(0.26458333,0,0,0.26458333,1.1436092,0.94241819)" /><path
       style="fill:#ffffff;stroke:#f9f9f9;stroke-width:0.228977"
       d="m 442.95645,303.77504 c -2.19608,-0.73072 -4.04008,-2.09384 -4.77838,-3.53228 -0.52244,-1.01786 -0.88761,-3.22903 -0.7224,-4.37424 0.36398,-2.52311 2.55592,-5.45114 4.8674,-6.50196 1.58487,-0.7205 3.68084,-0.6849 5.32741,0.0905 2.66126,1.25319 4.80983,3.90559 4.79839,5.9236 -0.008,1.46496 -0.56069,4.37775 -0.98627,5.20075 -1.20502,2.33024 -5.85458,4.07593 -8.50615,3.19366 z m 3.11427,-3.84659 c 1.56964,-0.52573 2.49567,-1.87337 2.49567,-3.63191 0,-2.17314 -1.1365,-3.26385 -3.43465,-3.29626 -2.20577,-0.0311 -3.75022,1.33248 -3.7512,3.31191 -7.2e-4,1.48102 0.70202,2.71077 1.91588,3.35268 1.11499,0.58962 1.64931,0.64038 2.7743,0.26358 z"
       id="path95"
       transform="matrix(0.26458333,0,0,0.26458333,1.1436092,0.94241819)" /><path
       style="fill:#ffffff;stroke:#f9f9f9;stroke-width:0.228977"
       d="m 443.07094,303.63866 c -1.12242,-0.34266 -2.57946,-1.20626 -3.55987,-2.10998 -1.29477,-1.19347 -1.80897,-2.54727 -1.81189,-4.77037 -0.002,-1.44765 0.10363,-1.93134 0.66412,-3.04392 0.81354,-1.61487 2.4619,-3.37697 3.81497,-4.07819 1.4998,-0.77727 3.78168,-0.75051 5.52621,0.0648 2.49293,1.16509 4.50963,3.76651 4.52052,5.83122 0.007,1.41649 -0.61082,4.37747 -1.08536,5.19771 -1.15332,1.9935 -5.69896,3.63219 -8.0687,2.90873 z m 2.81083,-3.49547 c 3.27547,-0.98135 3.91262,-5.72197 0.9362,-6.96559 -1.82272,-0.76159 -4.35999,-0.018 -5.1612,1.51252 -1.03795,1.98282 -0.16838,4.30064 1.98661,5.29523 1.09599,0.50583 1.08054,0.50474 2.23839,0.15784 z"
       id="path96"
       transform="matrix(0.26458333,0,0,0.26458333,1.1436092,0.94241819)" /><path
       style="fill:#ffffff;stroke:#f9f9f9;stroke-width:0.228977"
       d="m 442.1644,303.03748 c -3.02366,-1.40745 -4.20254,-3.1228 -4.2292,-6.15376 -0.0196,-2.22853 0.46288,-3.38176 2.21855,-5.30275 1.60012,-1.75078 2.63211,-2.25368 4.63452,-2.25847 2.00633,-0.005 3.65758,0.70726 5.18714,2.23682 1.36916,1.36916 2.02677,2.72879 2.02167,4.17982 -0.005,1.42045 -0.53425,3.95619 -1.02297,4.90127 -0.47261,0.91393 -2.10867,1.95611 -3.97743,2.53366 -1.97631,0.61078 -3.30753,0.57315 -4.83228,-0.13659 z m 3.67948,-2.74274 c 1.90403,-0.67178 2.95221,-2.15048 2.95063,-4.16258 -0.002,-2.119 -1.36846,-3.37008 -3.66277,-3.35266 -2.7892,0.0212 -4.64905,2.22749 -3.92234,4.65301 0.37667,1.2572 1.09948,2.05561 2.41593,2.6686 0.63961,0.29784 1.17574,0.54253 1.19139,0.54376 0.0157,10e-4 0.47787,-0.15633 1.02716,-0.35013 z"
       id="path97"
       transform="matrix(0.26458333,0,0,0.26458333,1.1436092,0.94241819)" /><path
       style="fill:#ffffff;stroke:#f9f9f9;stroke-width:0.228977"
       d="m 442.04054,302.74309 c -2.88635,-1.36849 -3.86014,-2.8421 -3.87627,-5.86591 -0.0114,-2.13712 0.44367,-3.30283 1.96332,-5.02925 1.48165,-1.68324 2.72832,-2.29528 4.65313,-2.2844 2.14673,0.0121 3.62694,0.66886 5.15917,2.28898 1.40443,1.48497 1.83329,2.43143 1.8288,4.03596 -0.004,1.27924 -0.47515,3.59276 -0.94049,4.61408 -0.59757,1.31152 -4.06894,2.89249 -6.35027,2.8921 -0.69387,-1.2e-4 -1.54104,-0.22658 -2.43739,-0.65156 z m 5.76494,-3.55776 c 1.22923,-1.32607 1.50796,-3.0311 0.76362,-4.6711 -0.33987,-0.74882 -0.67726,-1.08621 -1.42608,-1.42608 -3.30726,-1.50106 -6.92236,1.00861 -6.10852,4.24066 0.31996,1.27066 0.98445,2.03149 2.48021,2.83979 l 1.24519,0.67289 1.15907,-0.4357 c 0.63749,-0.23963 1.48642,-0.78884 1.88651,-1.22046 z"
       id="path98"
       transform="matrix(0.26458333,0,0,0.26458333,1.1436092,0.94241819)" /><path
       style="fill:#ffffff;stroke:#f9f9f9;stroke-width:0.228977"
       d="m 441.35361,304.04 c -4.28481,-2.00812 -5.9749,-6.59719 -3.98708,-10.82609 0.76476,-1.62696 2.74757,-3.64645 4.38223,-4.4633 1.18732,-0.59331 1.65442,-0.69723 3.13333,-0.69707 1.4403,1.5e-4 1.97332,0.11254 3.11186,0.65617 1.68895,0.80643 3.19915,2.12211 4.34417,3.78463 0.85238,1.23762 0.86805,1.29871 0.84057,3.27587 -0.0616,4.42858 -1.18604,6.50953 -4.38332,8.11172 -1.30456,0.65372 -1.75697,0.75591 -3.66363,0.82754 -2.06363,0.0775 -2.25756,0.0431 -3.77813,-0.66947 z m 5.02772,0.0576 c 0.0725,-0.11723 0.0111,-0.28771 -0.13635,-0.37884 -0.15979,-0.0988 -0.20698,-0.0668 -0.1168,0.0791 0.0832,0.13464 0.0219,0.29698 -0.13635,0.36077 -0.20589,0.083 -0.21013,0.1211 -0.0149,0.13404 0.14999,0.01 0.33199,-0.0778 0.40444,-0.19508 z m 0.73487,-0.34921 c 0,-0.18337 -0.0875,-0.27929 -0.19455,-0.21316 -0.107,0.0661 -0.13526,0.21616 -0.0628,0.3334 0.18516,0.29959 0.25736,0.26585 0.25736,-0.12024 z m -1.30506,-0.51814 c 0.25601,0.067 0.46548,0.0508 0.46548,-0.0358 0,-0.13519 1.48479,-0.65959 2.17528,-0.76827 0.12594,-0.0198 0.42491,-0.21857 0.66437,-0.44167 0.23946,-0.22309 0.50357,-0.36348 0.58691,-0.31198 0.26935,0.16647 1.39006,-1.79681 1.53185,-2.68353 0.0757,-0.47333 0.22945,-0.86061 0.3417,-0.86061 0.11224,0 0.13798,-0.2633 0.0572,-0.58512 -0.10823,-0.43125 -0.004,-0.74555 0.39635,-1.1952 0.29876,-0.33554 0.37497,-0.48181 0.16936,-0.32504 -0.32986,0.25149 -0.39285,0.15637 -0.5353,-0.80835 -0.0888,-0.60136 -0.38361,-1.45403 -0.65513,-1.89481 -0.27152,-0.44078 -0.46856,-0.8787 -0.43785,-0.97315 0.0307,-0.0944 -0.0646,-0.14597 -0.21168,-0.11449 -0.14713,0.0315 -0.40131,-0.20036 -0.56486,-0.5152 -0.16354,-0.31484 -0.37804,-0.57734 -0.47667,-0.58333 -0.0986,-0.006 -0.53996,-0.23744 -0.98074,-0.51434 -0.44078,-0.2769 -0.8787,-0.50384 -0.97316,-0.50431 -0.0944,-4.7e-4 -0.17986,-0.18118 -0.18981,-0.40157 -0.0108,-0.23938 -0.0646,-0.28548 -0.13357,-0.11449 -0.15944,0.39515 -0.68715,0.35949 -0.84706,-0.0572 -0.0725,-0.18891 -0.24416,-0.34347 -0.38148,-0.34347 -0.13732,0 -0.186,0.10304 -0.10816,0.22898 0.0865,0.14002 -0.26927,0.22898 -0.91591,0.22898 -0.63847,0 -1.002,-0.0897 -0.91753,-0.22636 0.0802,-0.1298 -0.0117,-0.16818 -0.21546,-0.09 -0.19545,0.075 -0.35536,0.23697 -0.35536,0.35993 0,0.12295 -0.12788,0.18093 -0.28418,0.12883 -0.1563,-0.0521 -0.40774,0.0166 -0.55877,0.15265 -0.15102,0.13606 -0.61637,0.49404 -1.03411,0.79552 -0.41774,0.30148 -1.11941,1.00759 -1.55927,1.56914 -0.43987,0.56154 -0.92364,1.15269 -1.07507,1.31365 -0.15142,0.16097 -0.21153,0.35646 -0.13357,0.43442 0.078,0.078 -0.0557,0.14989 -0.29712,0.15983 -0.2419,0.01 -0.31041,0.0699 -0.15266,0.13357 0.15743,0.0635 0.28623,0.27249 0.28623,0.46437 0,0.21266 -0.13125,0.29852 -0.33614,0.2199 -0.18487,-0.0709 -0.40687,-0.0145 -0.49333,0.12537 -0.10239,0.16567 -0.0515,0.189 0.14607,0.0669 0.22204,-0.13723 0.26288,-0.0822 0.15249,0.2055 -0.0896,0.23339 -0.0589,0.33612 0.0756,0.25302 0.13919,-0.086 0.22685,0.37236 0.22764,1.19024 0.002,2.57476 0.82858,4.05294 2.94958,5.27775 0.58093,0.33547 1.10776,0.66641 1.17073,0.73542 0.063,0.069 0.21753,0.12751 0.34346,0.12999 0.87317,0.0172 1.93996,0.39481 1.79883,0.63675 -0.0881,0.15106 0.0602,0.0814 0.32957,-0.15473 0.28916,-0.25351 0.68045,-0.37953 0.95527,-0.30766 z m -6.04234,-1.38645 c -0.39429,-0.37765 -0.39917,-0.37277 -0.10953,0.10953 0.16673,0.27763 0.35243,0.4555 0.41267,0.39526 0.0602,-0.0602 -0.0762,-0.2874 -0.30314,-0.50479 z m 12.62819,-3.16684 c -0.0761,-0.0761 -0.27358,-0.0842 -0.43887,-0.0181 -0.18266,0.0731 -0.12841,0.12735 0.13834,0.13834 0.24138,0.01 0.37662,-0.0442 0.30053,-0.12027 z m -15.12781,-0.83481 c -0.0635,-0.15742 -0.11549,-0.0286 -0.11549,0.28622 0,0.31485 0.052,0.44365 0.11549,0.28622 0.0635,-0.15742 0.0635,-0.41502 0,-0.57244 z m 0.005,-2.50444 c -0.0731,-0.18266 -0.12735,-0.1284 -0.13834,0.13834 -0.01,0.24138 0.0442,0.37662 0.12026,0.30054 0.0761,-0.0761 0.0842,-0.27358 0.0181,-0.43888 z m 0.53051,-0.87297 c 0,-0.12594 -0.10912,-0.22898 -0.24249,-0.22898 -0.13337,0 -0.17881,0.10304 -0.10097,0.22898 0.0778,0.12594 0.18695,0.22897 0.24249,0.22897 0.0555,0 0.10097,-0.10303 0.10097,-0.22897 z"
       id="path99"
       transform="matrix(0.26458333,0,0,0.26458333,1.1436092,0.94241819)" /><path
       style="fill:#ffffff;stroke:#f9f9f9;stroke-width:0.228977"
       d="m 443.17847,302.95264 c -1.13883,-0.27299 -3.25199,-1.76489 -3.91157,-2.76158 -0.75141,-1.13546 -0.99658,-3.62132 -0.54345,-5.51019 0.24406,-1.01736 0.54342,-1.46242 1.91764,-2.85099 1.75668,-1.77503 2.15053,-1.94648 4.46202,-1.94247 3.28693,0.006 6.44955,3.03424 6.4366,6.16369 -0.004,1.05457 -0.58379,3.50994 -1.03353,4.37962 -0.45528,0.88043 -1.71552,1.66083 -3.64379,2.25641 -1.59296,0.49202 -2.47409,0.55552 -3.68392,0.26551 z m 3.95884,-3.03466 c 2.53962,-1.55065 2.5526,-5.81631 0.0212,-6.95642 -3.63419,-1.63676 -7.52795,1.57637 -6.06205,5.00242 0.37259,0.87079 1.25164,1.71031 2.63137,2.51302 0.95122,0.55341 1.04114,0.56516 1.83182,0.23929 0.45732,-0.18848 1.16728,-0.54772 1.57769,-0.79831 z"
       id="path100"
       transform="matrix(0.26458333,0,0,0.26458333,1.1436092,0.94241819)" /><path
       style="fill:#ffffff;stroke:#f9f9f9;stroke-width:0.228977"
       d="m 442.81565,302.62097 c -1.61001,-0.57535 -3.3931,-2.22736 -3.83559,-3.55363 -0.33665,-1.00903 -0.3336,-3.63033 0.005,-4.6257 0.36497,-1.07167 1.82639,-2.77912 3.10166,-3.62382 0.93621,-0.62012 1.25479,-0.7034 2.68317,-0.70143 2.09215,0.003 3.54508,0.65596 4.95966,2.22931 1.59364,1.77251 1.91926,3.39306 1.22224,6.08291 -0.5241,2.02259 -0.84543,2.51362 -2.08156,3.18094 -2.27189,1.22646 -4.43987,1.5886 -6.05497,1.01142 z m 3.80439,-2.28566 c 1.12247,-0.62444 1.48904,-0.98483 2.00356,-1.96972 0.76644,-1.46713 0.79828,-2.55398 0.11453,-3.90866 -1.62907,-3.22756 -6.89215,-2.49165 -7.97267,1.1148 -0.53834,1.79682 0.65983,3.85813 2.94361,5.06412 1.14146,0.60276 1.3205,0.58428 2.91097,-0.30054 z"
       id="path101"
       transform="matrix(0.26458333,0,0,0.26458333,1.1436092,0.94241819)" /><path
       style="fill:#ffffff;stroke:#f9f9f9;stroke-width:0.228977"
       d="m 442.48353,302.29047 c -2.44784,-1.15239 -3.53418,-2.8183 -3.53418,-5.41972 0,-2.61287 0.94434,-4.36265 3.15296,-5.84215 1.03527,-0.69351 1.16497,-0.72151 2.93603,-0.63397 2.08487,0.10305 3.42625,0.70823 4.57053,2.06205 1.14382,1.35326 1.5515,2.59551 1.40571,4.28332 -0.15248,1.76534 -0.67285,3.35051 -1.32926,4.04922 -1.41159,1.50257 -5.42284,2.33873 -7.20179,1.50125 z m 3.95174,-1.68201 c 1.64583,-0.93757 2.50761,-2.03186 2.90657,-3.69082 0.24278,-1.00952 -0.27358,-2.46289 -1.20646,-3.39577 -2.69229,-2.69228 -7.58319,-0.74411 -7.58319,3.02059 0,1.32859 0.7977,2.62002 2.2698,3.67466 1.44683,1.03654 2.31551,1.13062 3.61328,0.39134 z"
       id="path102"
       transform="matrix(0.26458333,0,0,0.26458333,1.1436092,0.94241819)" /><path
       style="fill:#ffffff;stroke:#f9f9f9;stroke-width:0.228977"
       d="m 378.9245,275.45274 c -1.44715,-1.52127 -1.4187,-2.73939 0.0854,-3.65644 0.9613,-0.5861 1.87147,-0.58015 2.84024,0.0186 1.33716,0.82641 1.31472,2.12547 -0.063,3.6505 -1.083,1.19875 -1.71286,1.19597 -2.86258,-0.0126 z"
       id="path103"
       transform="matrix(0.26458333,0,0,0.26458333,1.1436092,0.94241819)" /><path
       style="fill:#ffffff;stroke:#f9f9f9;stroke-width:0.228977"
       d="m 379.07682,275.30381 c -0.89407,-0.92059 -1.16125,-1.60576 -0.92116,-2.36222 0.20728,-0.65307 1.42764,-1.37268 2.32968,-1.37374 0.95277,-0.001 2.13561,0.97759 2.13561,1.76705 0,1.12322 -1.39901,2.81164 -2.3297,2.81164 -0.21779,0 -0.76428,-0.37923 -1.21443,-0.84273 z"
       id="path104"
       transform="matrix(0.26458333,0,0,0.26458333,1.1436092,0.94241819)" /><path
       style="fill:#ffffff;stroke:#f9f9f9;stroke-width:0.228977"
       d="m 354.80022,276.97548 c -1.15562,-0.51885 -1.56517,-1.17005 -1.67295,-2.6601 -0.0916,-1.26612 -0.0519,-1.40221 0.59808,-2.05221 1.72703,-1.72703 4.19123,0.0962 3.87861,2.86975 -0.19035,1.68879 -1.39011,2.47724 -2.80374,1.84256 z"
       id="path105"
       transform="matrix(0.26458333,0,0,0.26458333,1.1436092,0.94241819)" /><path
       style="fill:#ffffff;stroke:#f9f9f9;stroke-width:0.228977"
       d="m 354.50829,276.60353 c -0.87865,-0.53571 -1.19642,-1.24172 -1.19642,-2.65811 0,-0.81584 0.1243,-1.14163 0.60587,-1.58794 1.92056,-1.7799 4.48137,1.2575 3.18072,3.77268 -0.54263,1.04932 -1.39117,1.2044 -2.59017,0.47337 z"
       id="path106"
       transform="matrix(0.26458333,0,0,0.26458333,1.1436092,0.94241819)" /><path
       style="fill:#ffffff;stroke:#f9f9f9;stroke-width:0.893715"
       d="m 507.18315,252.09129 c -1.47463,-0.35588 -3.53088,-1.10368 -4.56944,-1.6618 -2.9184,-1.56833 -7.41371,-7.10011 -7.97451,-9.81317 -0.27755,-1.34273 -0.80064,-3.64784 -1.16242,-5.12247 l -0.65781,-2.68114 -35.71622,-0.53466 c -19.64392,-0.29406 -84.68062,-0.32816 -144.526,-0.0758 -74.88403,0.3158 -108.80977,0.16968 -108.80977,-0.46866 0,-0.51015 1.80078,-2.58745 4.00174,-4.61623 l 4.00175,-3.68868 h 82.62002 82.62002 l 2.91474,-2.45771 c 2.82654,-2.38335 3.43036,-2.49196 19.95373,-3.5892 36.13452,-2.39952 45.42809,-2.61341 96.13274,-2.21244 l 52.28231,0.41344 3.34457,2.25232 c 1.83952,1.23877 4.55417,4.07848 6.03258,6.31046 5.96328,9.00291 1.87117,21.06792 -9.017,26.58537 -4.16612,2.11113 -4.94571,2.18704 -21.55617,2.09887 -9.47854,-0.0503 -18.44023,-0.38265 -19.91486,-0.73852 z m 10.60405,-9.95944 c 5.82677,-4.58334 0.18784,-13.40362 -6.85681,-10.72525 -4.52594,1.72075 -5.25952,7.04354 -1.49021,10.81285 2.27603,2.27603 5.38362,2.24341 8.34702,-0.0876 z m 26.70157,0.0864 c 2.93796,-2.31099 3.44677,-4.56675 1.79799,-7.97112 -1.22864,-2.53685 -1.71523,-2.77502 -5.66949,-2.77502 -3.36181,0 -4.53161,0.38514 -5.25066,1.72868 -1.54538,2.88757 -1.04495,6.27621 1.26851,8.58967 2.65442,2.65441 4.86957,2.77507 7.85365,0.42779 z"
       id="path107"
       transform="matrix(0.26458333,0,0,0.26458333,1.1436092,0.94241819)" /></g></svg>
